<svg width="25" height="25" viewBox="0 0 25 25" fill="none" xmlns="http://www.w3.org/2000/svg">
<path fill-rule="evenodd" clip-rule="evenodd" d="M12.5 24.375C19.0584 24.375 24.375 19.0584 24.375 12.5C24.375 5.94162 19.0584 0.625 12.5 0.625C5.94162 0.625 0.625 5.94162 0.625 12.5C0.625 19.0584 5.94162 24.375 12.5 24.375ZM12.5 25C19.4036 25 25 19.4036 25 12.5C25 5.59644 19.4036 0 12.5 0C5.59644 0 0 5.59644 0 12.5C0 19.4036 5.59644 25 12.5 25Z" fill="#C4C4C4"/>
<path d="M15.8797 17L12.481 12.9828L9.08228 17H8L11.9304 12.3621L8.20886 8H9.29114L12.481 11.7414L15.6709 8H16.7342L13.0127 12.3621L17 17H15.8797Z" fill="#C4C4C4"/>
</svg>
