<svg width="132" height="81" viewBox="0 0 132 81" fill="none" xmlns="http://www.w3.org/2000/svg">
<g filter="url(#filter0_d)">
<mask id="mask0" mask-type="alpha" maskUnits="userSpaceOnUse" x="4" y="0" width="124" height="73">
<path d="M4 2C4 0.895432 4.89543 0 6 0H126C127.105 0 128 0.895431 128 2V64.0133C128 65.0735 127.173 65.9494 126.114 66.01L6.1143 72.879C4.96668 72.9447 4 72.0317 4 70.8822V2Z" fill="#C4C4C4"/>
</mask>
<g mask="url(#mask0)">
<rect x="-94" y="-71" width="320" height="215" rx="2"/>
</g>
</g>
<g clip-path="url(#clip0)">
<path d="M39.8445 33.8543C39.0833 33.6921 38.4579 33.4354 37.9685 33.0841V32.314C38.5123 32.6653 39.1784 32.922 39.9669 33.0841C40.7825 28.112 41.3942 25.153 41.802 24.2073C42.2099 23.2615 42.6177 22.4373 43.0255 21.7347C43.8411 20.4106 44.9422 19.7486 46.3288 19.7486C46.7094 19.7486 46.9677 19.9107 47.1036 20.2349L47.1444 20.4376C46.4919 20.4376 45.921 20.6538 45.4316 21.0862C44.9422 21.5185 44.548 22.0455 44.2489 22.667C43.9771 23.2885 43.7324 24.1532 43.5149 25.2611C43.1614 27.0176 42.9167 28.6119 42.7808 30.0441C42.6449 31.4763 42.5769 32.2329 42.5769 32.314C42.5769 32.6112 42.5497 32.895 42.4953 33.1652C43.6644 33.003 44.7111 32.6923 45.6355 32.2329C45.7986 30.5845 46.2472 29.1389 46.9813 27.8958C47.7154 26.6258 48.6397 25.9907 49.7545 25.9907C50.4343 25.9907 50.7739 26.3555 50.7739 27.0852C50.7739 28.5173 49.9584 29.9495 48.3271 31.3817C47.9737 31.706 47.593 32.0032 47.1852 32.2735C47.1036 32.8409 47.0629 33.3543 47.0629 33.8137C47.0629 35.8135 47.5522 36.8132 48.531 36.8132C48.5038 37.1375 48.2727 37.2996 47.8377 37.2996C47.1036 37.2996 46.5463 36.9077 46.1657 36.1243C45.785 35.3406 45.5947 34.3407 45.5947 33.1247C44.616 33.557 43.5556 33.8272 42.4138 33.9353C41.7341 39.6911 40.8641 43.5688 39.8037 45.5685C39.2872 46.5413 38.6618 47.4736 37.9278 48.3652C36.4868 50.1217 34.3526 51 31.5251 51C30.1385 51 28.9422 50.7297 27.9363 50.1894C26.9575 49.676 26.2506 48.9867 25.8156 48.1221C25.2719 47.0142 25 45.9602 25 44.9605C25 43.9607 25.1495 43.0149 25.4486 42.1231C25.7477 41.2043 26.1555 40.3261 26.672 39.4885C27.2158 38.6237 27.9227 37.9347 28.7927 37.4213C29.6627 36.8807 30.5871 36.6106 31.5658 36.6106C32.0824 36.6106 32.4495 36.7998 32.667 37.178L32.7893 37.3806C30.5055 37.3806 28.6975 38.4211 27.3653 40.5018C26.4953 41.88 26.0603 43.2987 26.0603 44.7579C26.0603 45.2173 26.1147 45.6902 26.2234 46.1766C26.6041 48.1491 27.6916 49.3382 29.486 49.7434C29.921 49.8516 30.5055 49.9056 31.2396 49.9056C31.9737 49.9056 32.7485 49.703 33.5642 49.2975C34.3798 48.9193 35.0867 48.3112 35.6848 47.4736C36.2829 46.6088 36.7859 45.7441 37.1937 44.8795C37.6287 44.0147 38.0229 42.8798 38.3764 41.4746C38.8657 39.3669 39.3551 36.8267 39.8445 33.8543ZM56.1165 14.8845C57.0135 14.8845 57.4623 15.4114 57.4623 16.4653C57.4623 17.276 57.0271 18.0326 56.1571 18.7352C55.3143 19.4108 53.9686 19.7486 52.1199 19.7486C50.2983 19.7486 47.8105 19.2486 44.6568 18.2488C41.503 17.249 39.1104 16.7491 37.4792 16.7491C33.972 16.7491 31.2396 18.1407 29.2821 20.924C27.9499 22.8156 27.2838 24.8423 27.2838 27.0041C27.2838 30.0846 28.3441 32.1248 30.4647 33.1247C31.1988 33.4759 32.028 33.6516 32.9524 33.6516C32.9524 33.8408 32.8437 34.0434 32.6262 34.2596C32.4087 34.4758 32.164 34.5839 31.8921 34.5839C29.0374 34.5839 27.0527 33.4084 25.938 31.0574C25.4214 29.9495 25.1631 28.7876 25.1631 27.5715C25.1631 26.3555 25.4078 25.072 25.8972 23.7208C26.9575 20.8024 28.8471 18.6406 31.5658 17.2355C33.3331 16.3437 35.1954 15.8979 37.1529 15.8979C39.1376 15.8979 41.5845 16.3437 44.4936 17.2355C47.4299 18.1002 49.673 18.5325 51.2226 18.5325C53.5607 18.5325 54.9065 17.9921 55.2599 16.9112C55.4503 16.3978 55.3959 16.06 55.0969 15.8979C55.0424 15.8708 55.0018 15.8573 54.9744 15.8573C55.1377 15.2088 55.5183 14.8845 56.1165 14.8845ZM49.7136 26.7609C49.2516 26.7609 48.8028 27.1932 48.3679 28.058C47.9329 28.8956 47.593 29.9225 47.3483 31.1385C48.7077 30.0576 49.5641 28.8956 49.9175 27.6526C49.972 27.4364 49.9991 27.2338 49.9991 27.0446C49.9991 26.8554 49.904 26.7609 49.7136 26.7609Z" fill="#5A3333"/>
<path d="M65.1731 23.8931C66.1518 21.353 67.5399 13.5928 67.5399 12.674C67.5399 11.7552 63.6327 14.9386 63.1704 14.8845C61.8926 14.8845 58.8488 18.0032 57.4624 22.0836C56.5897 24.6857 55.1317 27.3277 54.9746 30.0441C54.8869 31.5592 56.1502 33.0975 55.8681 34.6649C55.1068 39.0156 54.726 42.0961 54.726 43.9065C54.726 46.9602 55.4873 48.4869 57.0099 48.4869C57.0099 48.676 56.8875 48.8653 56.6429 49.0544C56.3981 49.2435 56.1127 49.3382 55.7863 49.3382C53.5571 49.3382 52.4424 47.352 52.4424 43.3796C52.4424 41.9205 52.7143 39.6911 53.2579 36.6916C53.8017 33.6651 54.5085 30.5035 55.3787 27.2067C56.2486 23.91 57.4144 21.1672 58.8008 18.7352C60.1875 16.2762 61.9235 14.4835 63.3643 14.4835C64.5061 14.4835 67.722 11.2418 67.722 12.674C67.722 13.7549 66.399 21.2237 65.7193 23.1693C64.4141 26.9525 60.5195 29.3386 58.0726 33.1218C57.4201 34.1216 56.7687 34.1289 56.2522 34.7503C56.0055 33.9252 55.942 34.5298 55.942 34.2596C55.9147 33.7462 56.2077 34.2731 56.4796 33.8948C58.7091 30.5711 63.5145 28.1357 65.1731 23.8931Z" fill="#5A3333"/>
<path d="M64.0573 42.0421C64.0573 45.3117 65.2264 46.9467 67.5645 46.9467C68.4344 46.9467 69.3452 46.5683 70.2969 45.8116C71.2756 45.0279 72.1591 44.0958 72.9477 43.0149C74.6876 40.5287 75.9111 38.502 76.618 36.9349L77.1483 35.8H78.2492C77.7872 36.8807 77.1074 38.2184 76.2101 39.8128C75.3129 41.3801 74.4565 42.7041 73.641 43.7851C72.8253 44.8658 71.8601 45.8523 70.7454 46.7439C69.6306 47.6087 68.5704 48.0409 67.5645 48.0409C63.5408 48.0409 61.5288 45.7981 61.5288 41.3124C61.5288 39.2317 62.1406 37.151 63.3639 35.0703C65.0496 32.1789 67.1295 30.7332 69.6036 30.7332C71.3436 30.7332 72.2135 31.6789 72.2135 33.5705C72.2135 34.9756 71.6697 36.4348 70.5823 37.9481C69.0597 40.0019 67.279 41.0421 65.24 41.0693C64.941 41.0693 64.7506 40.9342 64.6691 40.6639L64.6282 40.5018C66.0419 40.5018 67.3877 39.5829 68.6657 37.7455C69.9705 35.8809 70.6232 34.3272 70.6232 33.0841C70.6232 32.2464 70.2969 31.8276 69.6444 31.8276C68.2034 31.8276 66.8576 33.0841 65.6069 35.5971C64.5737 37.7321 64.0573 39.8802 64.0573 42.0421Z" fill="#5A3333"/>
<path d="M88.5042 46.9872C89.2111 46.9872 90.2034 46.0549 91.4812 44.1903C92.7592 42.3259 93.8601 40.4613 94.7844 38.5967L96.1711 35.8H97.2723C97.1092 36.1243 96.8915 36.5699 96.6198 37.1375C96.375 37.6779 95.8721 38.6644 95.1108 40.0966C94.3495 41.5015 93.6155 42.7446 92.9087 43.8256C92.2289 44.9065 91.4541 45.8928 90.5841 46.7846C89.7413 47.6492 88.9392 48.0816 88.1779 48.0816C87.4166 48.0816 86.7912 47.8518 86.3018 47.3924C85.7038 46.7981 85.4048 45.7576 85.4048 44.2715C85.4048 42.7851 85.663 40.826 86.1797 38.3941H85.8942C82.7675 44.7714 80.1711 47.96 78.1049 47.96C76.2833 47.96 75.3726 46.7846 75.3726 44.4336C75.3726 42.7311 76.1065 39.3399 77.5747 34.2596C77.901 33.0976 78.1456 32.2329 78.3089 31.6654C78.4719 31.071 78.7303 30.7737 79.0837 30.7737C79.5731 30.7737 79.9265 31.125 80.144 31.8276C80.2526 32.1248 80.3071 32.5031 80.3071 32.9625C80.3071 33.3949 80.2391 33.8813 80.1031 34.4217C79.9672 34.9351 79.6817 35.9349 79.2468 37.4213C78.0776 41.4206 77.4931 44.1093 77.4931 45.4873C77.4931 46.3792 77.7651 46.8251 78.3089 46.8251C78.9884 46.8251 79.7906 46.217 80.7149 45.0009C81.6937 43.7309 82.4956 42.5015 83.121 41.3124C83.7463 40.1235 84.2492 39.1508 84.63 38.3941C85.0105 37.6374 85.3913 36.8537 85.7718 36.0431C86.1523 35.2054 86.4516 34.5163 86.6691 33.9759C86.9136 33.4354 87.1447 32.922 87.3624 32.4356C87.5799 31.9221 87.6885 31.6519 87.6885 31.6249C87.9333 31.0574 88.2052 30.7737 88.5042 30.7737C88.9936 30.7737 89.347 31.125 89.5645 31.8276C89.6734 32.1519 89.7275 32.5437 89.7275 33.003C89.7275 33.4624 89.6734 33.9488 89.5645 34.4623C89.4556 34.9486 89.279 35.6783 89.0342 36.6511C88.7897 37.6239 88.5993 38.4211 88.4633 39.0426C88.3274 39.6641 88.1643 40.4208 87.9739 41.3124C87.702 42.7986 87.5661 44.1228 87.5661 45.2847C87.5661 46.4196 87.8789 46.9872 88.5042 46.9872Z" fill="#5A3333"/>
<path d="M95.6218 47.96C94.8605 47.96 94.48 47.3789 94.48 46.217C94.48 45.5955 95.241 41.0693 96.7636 32.6382C96.8725 32.0708 97.1171 31.787 97.4978 31.787C97.9872 31.787 98.3542 32.1383 98.5988 32.8409C98.7347 33.2192 98.8027 33.6381 98.8027 34.0975C98.8027 34.5298 98.7483 35.0026 98.6396 35.5162L97.9872 38.84H98.1909C100.529 33.4354 102.677 30.7332 104.634 30.7332C105.722 30.7332 106.442 31.2601 106.796 32.314C106.932 32.7193 107 33.1922 107 33.7326C107 34.2461 106.85 34.8135 106.551 35.435C106.035 36.489 105.26 37.0158 104.227 37.0158C104.009 37.0158 103.832 36.9619 103.697 36.8537C103.588 36.7455 103.52 36.5971 103.493 36.4078C103.71 36.4078 103.996 36.0161 104.349 35.2324C104.702 34.4217 104.906 33.6786 104.961 33.003C105.015 32.3275 104.784 31.9357 104.267 31.8276C103.316 31.8276 102.188 33.0571 100.883 35.5162C99.5775 37.9751 98.5308 40.3261 97.7424 42.569C96.954 44.8118 96.4917 46.271 96.3558 46.9467C96.2198 47.6222 95.9752 47.96 95.6218 47.96Z" fill="#5A3333"/>
<path d="M55.0642 33.9486C54.9696 33.9524 54.8735 33.9545 54.7787 33.9582C55.1523 34.2016 55.5229 34.4445 55.8963 34.6878C55.1873 33.0747 56.076 29.7209 56.3816 28.0723C56.8038 25.793 57.5097 23.5457 58.6384 21.5207C59.9666 19.1382 61.8476 17.1466 63.8118 15.2942C64.6406 14.5123 65.7068 13.1897 66.7386 12.7664C68.0363 12.2315 67.5396 12.8383 67.3746 14.1656C67.2674 15.0295 67.1094 15.8725 66.923 16.7197C66.3521 19.3296 65.5535 22.0497 64.3737 24.4496C62.2421 28.7808 58.0977 31.4423 54.4533 34.3634C54.9059 34.7039 55.3587 35.0414 55.8112 35.3818C55.8435 35.3557 55.8761 35.3297 55.9084 35.3039C56.3001 34.9898 55.0459 33.8884 54.5505 34.2855C54.518 34.3115 54.4856 34.3374 54.4533 34.3634C54.0616 34.6774 55.3159 35.7789 55.8112 35.3818C58.549 33.1873 61.8309 31.1209 63.9779 28.296C65.5989 26.1652 66.5979 23.5892 67.4188 21.0518C67.9845 19.3043 70.9016 11.1221 67.0103 11.0007C65.7577 10.962 64.4312 12.4638 63.5689 13.2404C61.3183 15.2689 59.1019 17.4383 57.5384 20.0684C56.0715 22.5328 55.2182 25.3342 54.7868 28.1689C54.518 29.935 53.8199 32.719 54.5793 34.4496C54.7471 34.831 55.2797 35.1927 55.6969 35.1794C55.7917 35.1756 55.8877 35.1735 55.9823 35.1697C56.7156 35.1489 55.5997 33.9312 55.0642 33.9486Z" fill="#5A3333"/>
<path d="M54.2337 34.2729C54.204 34.3022 54.1754 34.3331 54.1457 34.3623C54.6128 34.6643 55.0796 34.9692 55.5469 35.271C56.2162 32.8364 57.3944 30.8173 58.6707 28.6474C60.1072 26.2047 61.443 23.6073 63.5348 21.6554C63.9232 21.2933 62.6345 20.2088 62.177 20.6371C59.8593 22.8021 58.4135 25.763 56.808 28.464C55.6441 30.4209 54.7031 32.2954 54.1053 34.4721C53.9663 34.9766 55.1178 35.7728 55.5065 35.3811C55.5362 35.3517 55.5647 35.3209 55.5946 35.2916C55.9752 34.9063 54.6708 33.8318 54.2337 34.2729Z" fill="#5A3333"/>
</g>
<path d="M8.25 1.66893e-06C8.25 -0.966497 9.0335 -1.75 10 -1.75H122C122.966 -1.75 123.75 -0.966498 123.75 0V60.212C123.75 61.1382 123.028 61.9039 122.104 61.959L10.104 68.6244C9.09837 68.6842 8.25 67.8848 8.25 66.8774V1.66893e-06Z" stroke="#E2E2E2" stroke-width="0.5"/>
<defs>
<filter id="filter0_d" x="0" y="0" width="132" height="80.8823" filterUnits="userSpaceOnUse" color-interpolation-filters="sRGB">
<feFlood flood-opacity="0" result="BackgroundImageFix"/>
<feColorMatrix in="SourceAlpha" type="matrix" values="0 0 0 0 0 0 0 0 0 0 0 0 0 0 0 0 0 0 127 0"/>
<feOffset dy="4"/>
<feGaussianBlur stdDeviation="2"/>
<feColorMatrix type="matrix" values="0 0 0 0 0.188235 0 0 0 0 0.188235 0 0 0 0 0.188235 0 0 0 0.12 0"/>
<feBlend mode="normal" in2="BackgroundImageFix" result="effect1_dropShadow"/>
<feBlend mode="normal" in="SourceGraphic" in2="effect1_dropShadow" result="shape"/>
</filter>
<clipPath id="clip0">
<rect x="25" y="11" width="82" height="40" rx="2" fill="white"/>
</clipPath>
</defs>
</svg>
