<svg width="127" height="62" viewBox="0 0 127 62" fill="none" xmlns="http://www.w3.org/2000/svg">
<g clip-path="url(#clip0)">
<path d="M23.6364 34.8547C22.4755 34.6074 21.5219 34.2159 20.7756 33.6802V32.5057C21.6048 33.0414 22.6206 33.4329 23.823 33.6802C25.0668 26.0977 25.9997 21.5853 26.6216 20.143C27.2436 18.7006 27.8655 17.4438 28.4874 16.3723C29.7312 14.3531 31.4104 13.3435 33.5249 13.3435C34.1054 13.3435 34.4993 13.5907 34.7066 14.0852L34.7688 14.3943C33.7737 14.3943 32.903 14.724 32.1567 15.3833C31.4104 16.0427 30.8092 16.8462 30.3532 17.794C29.9386 18.7418 29.5654 20.0605 29.2337 21.7501C28.6947 24.4287 28.3216 26.8601 28.1142 29.0442C27.9069 31.2282 27.8033 32.3821 27.8033 32.5057C27.8033 32.959 27.7618 33.3917 27.6789 33.8038C29.4617 33.5565 31.058 33.0827 32.4677 32.3821C32.7164 29.8683 33.4006 27.6637 34.52 25.768C35.6395 23.8312 37.0491 22.8628 38.7491 22.8628C39.7858 22.8628 40.3037 23.4191 40.3037 24.5318C40.3037 26.7158 39.0601 28.8999 36.5724 31.084C36.0334 31.5785 35.4529 32.0318 34.831 32.4439C34.7066 33.3093 34.6444 34.0923 34.6444 34.7928C34.6444 37.8425 35.3907 39.3671 36.8833 39.3671C36.8419 39.8616 36.4894 40.1088 35.8261 40.1088C34.7066 40.1088 33.8566 39.5111 33.2762 38.3164C32.6957 37.1213 32.4055 35.5964 32.4055 33.742C30.9129 34.4013 29.2959 34.8134 27.5545 34.9783C26.518 43.7559 25.1912 49.6693 23.5742 52.7189C22.7865 54.2024 21.8328 55.6241 20.7134 56.9838C18.5159 59.6624 15.2612 61.0019 10.9493 61.0019C8.83471 61.0019 7.01043 60.5897 5.47638 59.7657C3.98375 58.9828 2.90576 57.9317 2.24238 56.6131C1.41315 54.9236 0.998535 53.3163 0.998535 51.7916C0.998535 50.267 1.22657 48.8246 1.68265 47.4646C2.13872 46.0634 2.76064 44.7243 3.54841 43.4469C4.37763 42.128 5.45564 41.0773 6.78241 40.2944C8.10917 39.47 9.51883 39.0581 11.0115 39.0581C11.7992 39.0581 12.3589 39.3465 12.6906 39.9233L12.8772 40.2323C9.39447 40.2323 6.63728 41.819 4.60567 44.9921C3.27891 47.0939 2.61553 49.2574 2.61553 51.4826C2.61553 52.1832 2.69845 52.9044 2.8643 53.6462C3.44475 56.6543 5.10322 58.4677 7.83964 59.0856C8.50302 59.2506 9.39447 59.3329 10.5139 59.3329C11.6334 59.3329 12.815 59.0239 14.0589 58.4056C15.3027 57.8288 16.3807 56.9015 17.2928 55.6241C18.205 54.3053 18.972 52.9867 19.5939 51.6682C20.2573 50.3493 20.8585 48.6185 21.3975 46.4756C22.1438 43.2614 22.8901 39.3877 23.6364 34.8547ZM48.4512 5.92578C49.8191 5.92578 50.5035 6.72936 50.5035 8.33651C50.5035 9.57279 49.8398 10.7267 48.5132 11.7981C47.2279 12.8283 45.1756 13.3435 42.3564 13.3435C39.5785 13.3435 35.7846 12.5811 30.9751 11.0564C26.1656 9.5316 22.517 8.76921 20.0293 8.76921C14.6808 8.76921 10.5139 10.8915 7.52868 15.1361C5.49707 18.0207 4.48129 21.1114 4.48129 24.4081C4.48129 29.106 6.09829 32.2173 9.33227 33.742C10.4517 34.2777 11.7163 34.5456 13.126 34.5456C13.126 34.834 12.9601 35.1431 12.6284 35.4728C12.2968 35.8025 11.9236 35.9673 11.509 35.9673C7.15553 35.9673 4.12887 34.1747 2.42895 30.5895C1.64119 28.8999 1.2473 27.1279 1.2473 25.2735C1.2473 23.4191 1.62045 21.4617 2.36676 19.4012C3.98375 14.9506 6.8653 11.6539 11.0115 9.51099C13.7064 8.15109 16.5465 7.47114 19.5317 7.47114C22.5584 7.47114 26.29 8.15109 30.7263 9.51099C35.2041 10.8297 38.6248 11.489 40.9881 11.489C44.5536 11.489 46.6059 10.6648 47.1449 9.01646C47.4352 8.23349 47.3522 7.71839 46.8962 7.47114C46.8132 7.42992 46.7513 7.40931 46.7096 7.40931C46.9586 6.42028 47.5389 5.92578 48.4512 5.92578ZM38.6868 24.0372C37.9822 24.0372 37.2978 24.6966 36.6346 26.0153C35.9712 27.2927 35.4529 28.8587 35.0797 30.7131C37.1528 29.0647 38.4588 27.2927 38.9978 25.3971C39.0808 25.0675 39.1221 24.7584 39.1221 24.4699C39.1221 24.1815 38.9771 24.0372 38.6868 24.0372Z" fill="white"/>
<path d="M62.2624 19.6637C63.7551 15.7901 65.8719 3.95569 65.8719 2.55456C65.8719 1.15345 59.9133 6.00803 59.2083 5.92559C57.2597 5.92559 52.618 10.6816 50.5037 16.9042C49.1728 20.8723 46.9494 24.9014 46.7098 29.044C46.5761 31.3545 48.5026 33.7004 48.0723 36.0907C46.9114 42.7255 46.3307 47.4232 46.3307 50.1841C46.3307 54.8411 47.4917 57.1692 49.8136 57.1692C49.8136 57.4576 49.6269 57.7463 49.254 58.0347C48.8806 58.3231 48.4453 58.4675 47.9476 58.4675C44.5481 58.4675 42.8481 55.4384 42.8481 49.3807C42.8481 47.1554 43.2628 43.7557 44.0918 39.1814C44.9211 34.566 45.999 29.7445 47.326 24.717C48.6526 19.6895 50.4305 15.5067 52.5448 11.7979C54.6594 8.04789 57.3068 5.31411 59.5041 5.31411C61.2454 5.31411 66.1495 0.370478 66.1495 2.55456C66.1495 4.20294 64.132 15.5929 63.0954 18.5599C61.1051 24.3292 55.1658 27.9681 51.4342 33.7374C50.4392 35.2622 49.4457 35.2732 48.6581 36.2209C48.2818 34.9627 48.1851 35.8847 48.1851 35.4726C48.1434 34.6896 48.5903 35.4932 49.005 34.9163C52.4049 29.8476 59.7332 26.1336 62.2624 19.6637Z" fill="white"/>
<path d="M60.561 47.3414C60.561 52.3275 62.3439 54.8209 65.9095 54.8209C67.2361 54.8209 68.6251 54.2437 70.0764 53.0898C71.569 51.8947 72.9163 50.4733 74.1189 48.8248C76.7722 45.0335 78.6381 41.9427 79.7161 39.5528L80.5247 37.8221H82.2037C81.499 39.4702 80.4624 41.5103 79.0941 43.9416C77.7258 46.3318 76.4198 48.3509 75.1762 49.9994C73.9323 51.6474 72.4603 53.1519 70.7603 54.5116C69.0604 55.8305 67.4434 56.4895 65.9095 56.4895C59.7733 56.4895 56.7051 53.0692 56.7051 46.2286C56.7051 43.0555 57.6381 39.8824 59.5037 36.7093C62.0743 32.2999 65.2462 30.0952 69.0191 30.0952C71.6727 30.0952 72.9993 31.5375 72.9993 34.4222C72.9993 36.5649 72.17 38.7902 70.5117 41.0981C68.1897 44.23 65.4742 45.8164 62.3646 45.8579C61.9086 45.8579 61.6183 45.6518 61.494 45.2396L61.4316 44.9923C63.5875 44.9923 65.6398 43.5911 67.5888 40.7891C69.5787 37.9455 70.574 35.576 70.574 33.6804C70.574 32.4029 70.0764 31.7642 69.0814 31.7642C66.8838 31.7642 64.8315 33.6804 62.9242 37.5128C61.3486 40.7685 60.561 44.0445 60.561 47.3414Z" fill="white"/>
<path d="M97.8427 54.8824C98.9206 54.8824 100.434 53.4606 102.383 50.617C104.331 47.7739 106.01 44.9303 107.42 42.0868L109.535 37.8218H111.214C110.965 38.3163 110.633 38.996 110.219 39.8616C109.846 40.6856 109.079 42.19 107.918 44.3741C106.757 46.5167 105.637 48.4124 104.559 50.0608C103.523 51.7093 102.341 53.2133 101.015 54.5734C99.7293 55.8919 98.506 56.5514 97.345 56.5514C96.184 56.5514 95.2304 56.2009 94.4841 55.5003C93.5721 54.594 93.1161 53.0072 93.1161 50.7408C93.1161 48.4741 93.5098 45.4865 94.2978 41.7778H93.8624C89.0942 51.5032 85.1347 56.3658 81.9838 56.3658C79.2059 56.3658 77.8169 54.5734 77.8169 50.9881C77.8169 48.3918 78.9362 43.2202 81.1751 35.4727C81.6728 33.7007 82.0458 32.382 82.2948 31.5166C82.5434 30.6101 82.9374 30.1567 83.4764 30.1567C84.2227 30.1567 84.7617 30.6925 85.0934 31.7639C85.259 32.2172 85.342 32.7941 85.342 33.4947C85.342 34.154 85.2383 34.8958 85.031 35.72C84.8237 36.5029 84.3884 38.0276 83.725 40.2943C81.9421 46.3932 81.0508 50.4936 81.0508 52.595C81.0508 53.9551 81.4655 54.6351 82.2948 54.6351C83.3311 54.6351 84.5544 53.7078 85.964 51.8533C87.4566 49.9164 88.6796 48.0417 89.6332 46.2283C90.5869 44.4153 91.3538 42.9318 91.9345 41.7778C92.5148 40.6239 93.0955 39.4288 93.6758 38.1925C94.2561 36.9151 94.7124 35.8642 95.0441 35.04C95.417 34.2159 95.7694 33.4329 96.1014 32.6911C96.433 31.9081 96.5987 31.496 96.5987 31.4548C96.972 30.5894 97.3867 30.1567 97.8427 30.1567C98.589 30.1567 99.128 30.6925 99.4596 31.7639C99.6256 32.2584 99.7082 32.856 99.7082 33.5565C99.7082 34.2571 99.6256 34.9988 99.4596 35.7818C99.2936 36.5235 99.0243 37.6363 98.6509 39.1198C98.278 40.6033 97.9876 41.819 97.7803 42.7668C97.573 43.7147 97.3243 44.8686 97.034 46.2283C96.6193 48.4947 96.412 50.5142 96.412 52.2861C96.412 54.0168 96.889 54.8824 97.8427 54.8824Z" fill="white"/>
<path d="M108.697 56.3661C107.536 56.3661 106.956 55.48 106.956 53.7081C106.956 52.7602 108.116 45.8579 110.438 33.0004C110.604 32.1351 110.977 31.7024 111.558 31.7024C112.304 31.7024 112.864 32.2381 113.237 33.3095C113.444 33.8865 113.548 34.5252 113.548 35.2257C113.548 35.8851 113.465 36.6061 113.299 37.3893L112.304 42.4581H112.615C116.181 34.2161 119.456 30.0952 122.441 30.0952C124.1 30.0952 125.198 30.8988 125.737 32.5059C125.945 33.1241 126.048 33.8452 126.048 34.6694C126.048 35.4524 125.82 36.3177 125.364 37.2655C124.576 38.8728 123.395 39.6763 121.819 39.6763C121.487 39.6763 121.218 39.594 121.011 39.429C120.845 39.2641 120.741 39.0378 120.7 38.749C121.031 38.749 121.467 38.1517 122.006 36.9566C122.545 35.7203 122.856 34.587 122.939 33.5568C123.022 32.5265 122.669 31.929 121.881 31.7642C120.43 31.7642 118.71 33.6392 116.72 37.3893C114.729 41.1392 113.133 44.7245 111.931 48.1448C110.728 51.5651 110.023 53.7904 109.816 54.8209C109.609 55.851 109.236 56.3661 108.697 56.3661Z" fill="white"/>
<path d="M46.8467 34.9986C46.7024 35.0043 46.556 35.0075 46.4114 35.0132C46.9812 35.3843 47.5462 35.7549 48.1157 36.1259C47.0344 33.6659 48.3897 28.5513 48.8558 26.0372C49.4996 22.5613 50.5761 19.1341 52.2974 16.046C54.3229 12.4127 57.1914 9.37552 60.1868 6.55068C61.4507 5.35815 63.0767 3.34128 64.6502 2.69575C66.6292 1.88006 65.8717 2.80535 65.6201 4.82951C65.4567 6.14696 65.2156 7.43258 64.9315 8.72448C64.0608 12.7046 62.843 16.8528 61.0437 20.5127C57.7931 27.1178 51.4728 31.1764 45.9152 35.6311C46.6053 36.1504 47.2958 36.6651 47.9859 37.1842C48.0352 37.1445 48.0849 37.1048 48.1342 37.0654C48.7315 36.5864 46.8188 34.9068 46.0634 35.5124C46.0138 35.552 45.9645 35.5916 45.9152 35.6311C45.3178 36.11 47.2305 37.7898 47.9859 37.1842C52.1611 33.8376 57.166 30.6864 60.4402 26.3784C62.9122 23.1289 64.4356 19.2005 65.6876 15.331C66.5502 12.6661 70.9988 0.188096 65.0645 0.00307101C63.1543 -0.0559182 61.1314 2.23424 59.8164 3.41853C56.3842 6.51199 53.0042 9.82032 50.6199 13.8313C48.3828 17.5895 47.0816 21.8617 46.4237 26.1846C46.0138 28.8778 44.9492 33.1234 46.1073 35.7626C46.3632 36.3442 47.1754 36.8958 47.8116 36.8755C47.9562 36.8698 48.1026 36.8665 48.2469 36.8608C49.3651 36.829 47.6633 34.9721 46.8467 34.9986Z" fill="white"/>
<path d="M45.5801 35.4933C45.5348 35.5379 45.4913 35.585 45.446 35.6296C46.1582 36.0901 46.8701 36.5552 47.5827 37.0154C48.6034 33.3026 50.4001 30.2234 52.3466 26.9144C54.5373 23.1893 56.5743 19.2283 59.7644 16.2516C60.3566 15.6994 58.3914 14.0454 57.6936 14.6987C54.1592 18.0002 51.9544 22.5156 49.5059 26.6348C47.7309 29.619 46.296 32.4776 45.3844 35.7971C45.1723 36.5664 46.9284 37.7806 47.5211 37.1832C47.5664 37.1385 47.6099 37.0915 47.6556 37.0468C48.2359 36.4592 46.2467 34.8205 45.5801 35.4933Z" fill="white"/>
</g>
<defs>
<clipPath id="clip0">
<rect x="0.998535" y="0.00195312" width="125.05" height="61" rx="2" fill="white"/>
</clipPath>
</defs>
</svg>
