<svg width="125" height="125" viewBox="0 0 125 125" fill="none" xmlns="http://www.w3.org/2000/svg">
<g clip-path="url(#clip0)">
<path d="M32.4281 64.2775C32.8348 64.1122 33.3067 64.2578 33.5517 64.622C36.5195 69.0358 35.4566 78.8892 31.6183 82.5684C31.3015 82.8721 30.8093 82.9137 30.4471 82.6656C23.5451 77.9366 24.6761 67.4282 32.4281 64.2775Z" fill="#9CDD05"/>
<path d="M34.4332 66.4049C34.1869 65.7279 33.8912 65.1271 33.5516 64.622C33.3066 64.2577 32.8347 64.1122 32.428 64.2775C24.6772 67.4276 23.544 77.936 30.4469 82.6655C30.809 82.9136 31.301 82.872 31.618 82.5683C31.7456 82.4459 31.8706 82.3125 31.9943 82.1735C27.7947 77.2923 28.9314 69.8079 34.4332 66.4049Z" fill="#94C609"/>
<path d="M79.9051 59.894C80.552 59.4399 80.708 58.5474 80.2539 57.9005C79.7997 57.2537 78.9071 57.0975 78.2604 57.5517C72.9388 61.2884 66.5896 65.3436 59.3483 69.2704L60.9307 63.6264C61.144 62.8654 60.6994 62.0751 59.9392 61.8623C59.1782 61.649 58.3883 62.0928 58.175 62.8538L55.8586 71.1156C39.15 79.7256 20.9969 85.8822 2.0305 88.3114C1.24662 88.4119 0.692232 89.1288 0.792744 89.9127C0.862717 90.4592 1.23226 90.8941 1.71508 91.0733C1.92491 91.1512 2.15649 91.1809 2.39388 91.1504C15.9218 89.4178 29.596 85.7168 43.1166 80.1373C44.2953 80.165 49.4927 80.4409 55.8781 83.0954C56.6042 83.3987 57.4454 83.0537 57.749 82.3235C58.0524 81.5938 57.7069 80.7561 56.9769 80.4527C53.7113 79.0948 50.7413 78.3172 48.3721 77.8707C59.3326 72.9374 69.941 66.8906 79.9051 59.894Z" fill="#83AA2E"/>
<path d="M65.2143 95.0881C70.4251 97.3914 76.2415 96.4751 80.4435 93.2054C80.9368 92.8215 81.0935 92.1359 80.8185 91.5745C79.3218 88.5173 75.5447 85.2418 70.5437 83.0313C65.5427 80.8207 60.5779 80.2322 57.3095 81.1829C56.7092 81.3574 56.3076 81.9347 56.3557 82.558C56.7663 87.8666 60.0036 92.7847 65.2143 95.0881Z" fill="#9CDD05"/>
<path d="M59.9333 83.8865C59.8852 83.2634 60.2868 82.6861 60.8871 82.5114C63.3912 81.7829 66.8914 81.9592 70.6403 83.075C70.6079 83.0605 70.576 83.0457 70.5437 83.0313C65.5427 80.8207 60.5779 80.2322 57.3094 81.1831C56.7092 81.3576 56.3075 81.9349 56.3556 82.5582C56.7661 87.8667 60.0034 92.7848 65.2141 95.0882C66.0919 95.4762 66.9871 95.7707 67.8886 95.98C63.2086 93.5294 60.3195 88.881 59.9333 83.8865Z" fill="#94C609"/>
<path d="M84.4742 65.5527C83.0395 64.5334 81.844 63.1355 81.0612 61.4185C80.4954 60.178 80.2337 58.8951 80.2201 57.6264C78.9821 57.3488 77.782 56.8253 76.6865 56.0135C75.1705 54.89 74.0525 53.4292 73.3547 51.8137C71.1214 51.1884 69.0416 51.1393 67.6008 51.6234C67.2743 51.7333 67.0672 52.0609 67.1094 52.4041C67.4687 55.3269 69.3774 57.9709 72.3092 59.127C74.3423 59.9287 76.4965 59.8673 78.3721 59.122C77.2521 60.801 76.7432 62.8953 77.1036 65.0508C77.6233 68.1591 79.8114 70.5773 82.5951 71.5377C82.9217 71.6505 83.2856 71.5164 83.4609 71.2198C84.2348 69.9115 84.6202 67.8672 84.4742 65.5527Z" fill="#9CDD05"/>
<path d="M71.4313 56.8965C71.3891 56.5534 71.5962 56.2256 71.9227 56.1158C73.1712 55.6963 74.8994 55.6778 76.7914 56.087C76.7565 56.0619 76.721 56.0391 76.6865 56.0135C75.1705 54.89 74.0525 53.4292 73.3547 51.8137C71.1214 51.1883 69.0416 51.1393 67.6008 51.6234C67.2743 51.7333 67.0672 52.0609 67.1094 52.4041C67.4545 55.2113 69.2316 57.7575 71.9691 58.9792C71.702 58.3135 71.5194 57.6136 71.4313 56.8965Z" fill="#94C609"/>
<path d="M117.569 51.1793C117.398 50.1912 115.676 41.4258 108.051 37.9162C107.309 37.5956 106.54 37.3221 105.766 37.1034L105.557 37.0442L105.571 37.2616C105.783 40.4985 105.097 43.4324 103.65 46.2981L103.803 46.363C105.857 47.2343 107.772 48.5455 109.493 50.2599L109.547 50.3139L109.623 50.3039C111.923 50.0019 114.051 50.5789 116.128 52.0682C116.801 52.551 117.71 51.9886 117.569 51.1793Z" fill="#F37D79"/>
<path d="M110.667 39.4725C109.883 38.8874 109.015 38.3597 108.051 37.9162C107.309 37.5956 106.54 37.3221 105.766 37.1034L105.557 37.0442L105.571 37.2616C105.783 40.4985 105.097 43.4324 103.65 46.2981L103.803 46.363C105.431 47.0532 106.969 48.024 108.394 49.2484C109.926 46.1224 110.689 42.841 110.667 39.4725Z" fill="#D86666"/>
<path d="M105.56 34.8353C103.717 26.6493 95.5033 23.1383 94.5728 22.765C93.8105 22.459 93.0714 23.231 93.4031 23.9897C94.4267 26.3317 94.5476 28.5332 93.7728 30.7197L93.7472 30.7913L93.7887 30.8556C95.5363 33.5618 96.5095 36.4186 96.6812 39.3428C96.754 41.4287 96.529 43.2155 96.0826 45.0565L96.2857 45.0508C98.1136 44.9994 99.9673 45.2051 101.792 45.6612C102.467 45.8469 103.145 46.0834 103.806 46.3641L103.939 46.4205C105.813 42.7073 106.376 38.9049 105.56 34.8353Z" fill="#F37D79"/>
<path d="M100.032 45.3034C101.959 41.1519 102.48 36.76 101.572 32.2325C100.841 28.9849 99.2729 26.3537 97.4628 24.2655C96.0227 23.3725 94.8857 22.8907 94.5728 22.765C93.8105 22.459 93.0714 23.231 93.4031 23.9897C94.4267 26.3317 94.5476 28.5332 93.7728 30.7197L93.7472 30.7913L93.7887 30.8556C95.5363 33.5618 96.5095 36.4186 96.6812 39.3428C96.7525 41.387 96.536 43.1856 96.0935 45.0113C96.157 45.0246 96.2203 45.0372 96.2839 45.0509L96.2857 45.051C97.5284 45.0161 98.7826 45.1027 100.032 45.3034Z" fill="#D86666"/>
<path d="M85.3231 48.6581C88.7996 46.3713 92.4879 45.1576 96.2859 45.051L96.4033 45.0478C96.8465 43.2229 97.0615 41.3777 96.99 39.3303C96.4201 29.6158 87.6655 24.0459 86.6691 23.443C85.8693 22.959 84.9006 23.6888 85.1326 24.5974C86.9008 31.5406 82.6223 35.6505 76.6095 39.5993L76.6202 39.6091C71.8681 43.1926 71.1927 49.9533 74.842 54.4623C75.386 55.1346 76.0228 55.7498 76.7488 56.2878C77.8183 57.0803 79.0255 57.6314 80.3362 57.9253L80.5257 57.9678L80.5238 57.7735C80.4874 54.3588 82.3713 50.7811 85.3231 48.6581Z" fill="#F37D79"/>
<path d="M81.0073 44.0335L80.9966 44.0237C87.1133 39.9589 91.9104 35.6099 90.2492 28.4315C90.1494 28.0013 90.3155 27.5642 90.6827 27.2909C90.83 27.1813 90.9933 27.1131 91.1601 27.083C89.0654 24.9472 87.1094 23.709 86.6691 23.4425C85.8693 22.9585 84.9006 23.6883 85.1326 24.5969C86.9008 31.5401 82.6223 35.65 76.6095 39.5988L76.6202 39.6086C71.8681 43.1921 71.1927 49.9528 74.842 54.4618C75.386 55.1341 76.0228 55.7493 76.7488 56.2873C76.8959 56.3962 77.046 56.4996 77.1982 56.5995C75.5108 52.2085 77.01 47.0597 81.0073 44.0335Z" fill="#D86666"/>
<path d="M115.26 58.7684C114.878 57.6684 111.255 47.9451 101.869 45.362C97.8679 44.3619 91.719 44.0776 85.142 48.4067C81.4546 51.0584 78.7738 56.5922 81.0684 61.6248C81.4434 62.4472 81.9122 63.1981 82.4564 63.8704C86.0987 68.3706 92.8509 69.1345 97.3539 65.2271L97.3635 65.2431C102.344 60.1496 107.512 56.9148 113.81 60.0305C114.652 60.4471 115.566 59.6505 115.26 58.7684Z" fill="#F37D79"/>
<path d="M89.0799 53.2723C96.5331 48.3666 106.241 47.988 113.12 54.3782C111.099 51.0825 107.536 46.9217 101.869 45.362C97.868 44.3619 91.7191 44.0776 85.142 48.4066C81.4546 51.0584 78.7738 56.5922 81.0684 61.6248C81.4434 62.4472 81.9122 63.1981 82.4564 63.8704C83.1323 64.7054 83.9254 65.4177 84.7982 65.9968C82.8881 61.1001 85.5127 55.8375 89.0799 53.2723Z" fill="#D86666"/>
</g>
<defs>
<clipPath id="clip0">
<rect width="96.8743" height="96.8743" fill="white" transform="translate(34) rotate(20.3687)"/>
</clipPath>
</defs>
</svg>
