<svg width="649" height="515" viewBox="0 0 649 515" fill="none" xmlns="http://www.w3.org/2000/svg">
<path fill-rule="evenodd" clip-rule="evenodd" d="M804.788 500.975C806.286 462.544 774.119 437.607 744.984 423.07C707.611 404.427 665.718 395.851 623.316 393.724C601.088 392.612 578.639 393.244 556.218 395.128C535.482 396.866 514.434 399.084 493.916 404.418C474.511 409.466 456.126 417.897 440.265 431.616C424.243 445.463 409.389 463.918 388.77 469.303C377.407 472.267 366.335 470.783 355.982 467.051C355.213 461.154 353.526 455.358 351.185 449.981C347.496 441.487 342.665 432.307 336.14 425.937C331.954 421.853 325.485 417.375 319.079 419.779C313.302 421.952 310.824 428.242 312.1 433.845C313.736 440.983 319.192 446.585 324.639 450.628C333.836 457.455 344.128 464.024 355.26 468.025C355.748 471.891 355.816 475.838 355.314 479.811C354.07 489.567 349.093 499.59 341.509 506.106C331.647 514.572 320.045 514.234 309.865 508.93C299.515 503.546 290.222 495.502 281.49 487.82C272.934 480.299 264.852 472.221 257.166 463.767C241.523 446.536 227.537 427.719 214.387 408.304C187.736 368.961 164.027 327.382 141.846 284.925C98.2994 201.613 60.6651 114.761 17.5916 31.1712C12.3026 20.8915 6.91235 10.6631 1.44577 0.501614C1.14308 -0.068646 0.222234 0.463851 0.538951 1.03013C47.7425 88.6829 87.3655 180.92 132.777 269.669C155.047 313.187 178.731 355.882 205.273 396.492C231.865 437.17 261.696 477.135 301.253 504.833C308.796 510.108 317.575 515.085 327.426 513.823C334.978 512.859 341.792 508.19 346.797 502.013C355.004 491.904 357.386 479.933 356.147 468.324C362.763 470.604 369.67 471.972 376.797 471.912C396.537 471.754 412.376 458.886 426.968 445.203C435.462 437.245 443.833 429.096 453.488 422.739C463.51 416.128 474.444 411.37 485.59 407.863C508.096 400.767 531.539 398.3 554.473 396.316C601.784 392.219 649.622 393.499 694.57 405.379C716.312 411.123 737.612 419.263 756.822 430.679C773.191 440.412 788.771 453.521 797.508 471.291C801.972 480.357 804.198 490.381 803.791 500.964C803.762 501.658 804.763 501.646 804.788 500.975ZM331.651 454.236C324.329 449.329 316.178 443.789 313.398 434.578C311.875 429.52 313.262 423.886 318.437 421.16C323.061 418.725 328.241 421.141 331.832 423.697C339.681 429.277 344.841 438.967 349.004 447.719C351.805 453.598 354.065 460.031 355.081 466.719C346.722 463.606 338.831 459.056 331.651 454.236Z" fill="#CC8A85" fill-opacity="0.4"/>
</svg>
