<svg width="369" height="460" viewBox="0 0 369 460" fill="none" xmlns="http://www.w3.org/2000/svg">
<g opacity="0.4">
<path opacity="0.8" d="M258.255 -343.502C258.561 -343.719 258.893 -343.849 259.237 -343.862C266.429 -344.391 270.542 -338.181 271.872 -332.706C272.442 -330.352 272.677 -327.973 272.902 -325.657C273.282 -321.773 273.663 -317.764 275.717 -313.862C278.246 -309.041 281.741 -304.603 285.124 -300.298C286.237 -298.876 287.345 -297.486 288.397 -296.074C308.145 -269.924 325.694 -247.08 342.043 -226.231L343.292 -224.641C346.651 -220.371 350.137 -215.945 352.855 -211.257L352.901 -211.166L353.025 -211.042L353.061 -211.015C355.066 -208.757 357.075 -206.219 359.371 -203L359.571 -202.718L359.92 -202.699C363.782 -202.463 368.229 -200.626 373.533 -197.079C377.38 -194.516 380.89 -191.556 384.297 -188.717C389.266 -184.544 394.418 -180.237 400.628 -177.084C409.307 -172.69 418.355 -168.7 427.114 -164.841C430.629 -163.298 434.123 -161.759 437.61 -160.179C438.543 -159.76 439.487 -159.35 440.428 -158.92C441.669 -158.366 442.921 -157.821 444.17 -157.255C441.479 -158.409 438.762 -159.526 436.109 -160.601C434.578 -161.215 433.051 -161.849 431.524 -162.483C428.304 -163.81 425.072 -165.128 421.837 -166.427C414.613 -169.34 407.15 -172.366 399.991 -175.661C395.424 -177.767 390.792 -180.215 386.219 -182.954L385.288 -181.871C386.001 -181.014 386.801 -180.184 387.71 -179.325L387.878 -179.161L388.111 -179.132C390.562 -178.816 392.981 -176.373 394.817 -174.279L394.895 -174.193L396.348 -173.365L396.371 -173.382L396.405 -173.335L397.807 -172.577L396.558 -173.143L397.893 -171.082C397.893 -171.082 398.658 -169.927 398.83 -169.659C403.471 -164.301 407.256 -158.229 410.792 -150.462C413.168 -145.232 414.569 -139.931 415.632 -135.433C416.734 -132.501 417.797 -129.577 418.812 -126.618L417.669 -126.286L418.079 -124.508C418.664 -123.031 419.207 -121.665 419.726 -120.283L420.804 -120.657C422.096 -116.71 423.352 -112.738 424.585 -108.697L423.541 -108.4C424.491 -104.635 425.088 -101.169 425.358 -97.7899L425.365 -97.7061L425.783 -96.3406L425.821 -96.2617C426.621 -94.8829 427.606 -93.4412 428.835 -91.8542L429.62 -92.2685C429.874 -91.5109 430.403 -89.8885 430.403 -89.8885L430.49 -89.7908C432.167 -87.796 433.93 -85.8796 435.635 -84.0458C437.497 -82.0401 439.243 -80.1474 440.596 -78.4358C442.58 -75.9332 444.456 -73.2834 446.428 -70.4722C447.511 -68.9412 448.603 -67.3985 449.719 -65.8724L449.802 -65.7546L449.925 -65.682C455.471 -62.3421 461.955 -61.9989 468.222 -61.6616C469.709 -61.5831 471.217 -61.5011 472.678 -61.3859C480.366 -60.7641 486.5 -58.7417 491.976 -55.0517C498.77 -50.4737 503.016 -43.2264 507.116 -36.2112C511.56 -28.6092 516.134 -20.7985 523.971 -16.4459L523.94 -16.389C522.165 -17.4483 520.467 -18.3495 518.791 -19.1434L517.805 -19.6123C511.307 -22.4731 505.161 -23.3382 497.292 -22.5418L496.334 -22.4469C491.591 -21.9541 486.66 -21.452 481.886 -21.803L479.218 -22.0006L481.422 -20.485C492.807 -12.6686 501.472 -5.17243 506.774 6.06462C510.787 14.5554 511.32 24.3244 511.836 33.7696C511.983 36.4757 512.137 39.2657 512.369 41.9655C513.032 49.521 514.089 58.4067 516.985 67.0689C518.595 70.2425 520.007 73.4857 521.188 76.8034C519.258 73.6267 517.674 69.9399 516.402 65.696L516.367 65.5969L516.309 65.5144C510.112 55.9357 501.503 48.1699 490.714 42.4425C487.885 40.9443 484.974 39.5044 482.145 38.1303C472.756 33.5328 463.046 28.7561 455.671 20.8597C448.209 12.8656 444.892 3.03426 446.299 -6.81699C446.862 -10.7159 447.968 -14.6981 449.03 -18.5428C451.104 -26.0028 453.243 -33.7207 451.416 -41.0717L451.393 -41.1791L451.347 -41.2699C449.352 -44.6129 447.467 -47.8749 445.692 -51.0559L446.491 -51.4265C447.454 -49.4918 448.453 -47.5302 449.481 -45.5533L449.511 -45.4861L449.553 -45.4272C450.548 -44.222 451.601 -43.0584 452.78 -41.8424L453.904 -42.6024C454.582 -41.1201 455.418 -39.7143 456.395 -38.4086L456.437 -38.3497L456.49 -38.2991C459.221 -35.8654 462.389 -33.3878 466.167 -30.7232C470.097 -28.8915 474.576 -27.6595 479.962 -26.8933C484.086 -26.312 488.334 -26.755 492.437 -27.202C497.435 -27.734 502.161 -28.2504 506.719 -27.0567L506.925 -26.9904L507.182 -27.526C507.612 -27.1938 508.533 -26.4669 508.533 -26.4669L508.63 -26.4295C509.464 -26.1005 510.259 -25.7265 511.011 -25.3391L511.876 -26.4643C509.282 -29.3301 506.862 -32.5491 504.537 -35.6587C500.944 -40.4343 497.235 -45.3747 492.692 -49.371C485.295 -55.8737 476.126 -57.7633 466.599 -59.2584C463.434 -59.7585 460.075 -60.3331 456.925 -61.462C456.27 -61.6879 455.136 -62.4408 454.027 -63.1585C453.656 -63.4083 453.272 -63.6498 452.889 -63.8913L451.934 -62.8437C455.692 -58.0088 459.091 -54.5809 462.624 -52.0615C463.695 -51.2988 464.783 -50.5847 465.908 -49.8955C461.524 -52.1669 457.324 -54.7797 453.347 -58.0994L452.899 -58.5072L451.501 -59.7091L451.491 -59.7729L451.302 -59.9398C445.374 -65.3426 440.448 -71.8263 436.412 -77.4542L435.532 -76.9732C435.109 -78.0702 434.668 -79.2429 434.201 -80.5028L434.174 -80.5902L430.906 -85.2067L429.951 -84.7076C429.492 -85.9558 429.053 -87.2005 428.622 -88.4335L428.596 -88.5208L428.537 -88.6032C427.852 -89.6209 427.249 -90.5729 426.703 -91.4944L425.493 -93.5542L425.355 -91.1765C425.131 -87.2711 424.384 -83.5072 423.12 -79.9971C422.641 -78.6506 422.061 -77.1972 421.346 -75.5599L421.263 -75.3774L421.293 -75.1861C421.659 -72.2459 422.231 -69.2395 422.793 -66.3488C424.919 -55.3032 426.923 -44.8788 418.82 -35.697C417.317 -33.9977 415.512 -32.402 413.298 -30.8349C408.963 -27.7674 403.786 -25.3409 399.217 -23.2036L398.273 -22.7648C396.079 -21.7427 393.614 -20.8291 390.987 -19.871C386.239 -18.137 381.332 -16.3265 377.398 -13.5424C376.256 -12.7338 375.227 -11.8644 374.356 -10.9473C374.41 -11.0209 374.577 -11.2097 374.577 -11.2097L374.611 -11.2867C376.318 -14.6691 377.299 -17.3787 377.809 -20.0552C378.779 -25.1784 377.866 -30.0648 376.981 -34.8119C376.755 -36.0306 376.529 -37.2493 376.326 -38.4847C374.99 -46.7661 375.941 -54.8632 379.13 -62.5464C381.74 -68.8484 385.929 -74.1457 391.217 -77.8884C392.501 -78.797 393.852 -79.6114 395.234 -80.3065C401.503 -83.4882 406.29 -82.5451 411.829 -81.4629C413.983 -81.0427 416.205 -80.6004 418.641 -80.3802L419.364 -80.3084L419.416 -81.0344C420.597 -95.2509 419.338 -110.092 415.457 -127.762C414.129 -131.011 412.99 -133.546 411.852 -135.852C410.291 -139.007 408.866 -142.293 407.484 -145.469C405.961 -148.97 404.395 -152.581 402.629 -156.05C402.357 -156.583 401.97 -157.405 401.493 -158.429C399.577 -162.534 396.009 -170.173 392.379 -174.851L392.267 -174.984L392.105 -175.064C389.201 -176.368 385.855 -177.924 382.989 -180.049C381.051 -181.488 379.62 -183.11 378.243 -184.681C376.007 -187.216 373.703 -189.846 369.352 -191.398C368.757 -191.613 368.208 -191.79 367.699 -191.96L367.023 -192.189L366.705 -191.54C366.631 -191.346 366.496 -191.162 366.319 -191.037C366.26 -190.995 366.181 -190.957 366.114 -190.927C363.682 -189.842 361.559 -189.294 358.99 -189.102L358.339 -189.048L358.329 -188.387C358.235 -182.876 357.536 -177.22 356.851 -171.769C356.389 -168.101 355.915 -164.301 355.634 -160.602C355.55 -159.446 355.478 -158.299 355.406 -157.153C355.114 -152.669 354.819 -148.041 353.827 -143.573C353.347 -141.378 352.764 -139.18 352.195 -137.063C351.047 -132.715 349.851 -128.21 349.425 -123.542C348.492 -113.372 349.05 -102.843 349.606 -92.6663C349.81 -88.957 350.005 -85.1353 350.133 -81.4079C350.446 -72.1732 350.634 -62.7428 350.82 -53.6126C351.239 -33.0156 351.653 -11.726 353.537 9.01821L353.779 11.5335L353.961 13.438C354.068 14.5639 354.156 15.6864 354.283 16.8157C354.318 17.2151 354.203 17.5265 353.909 17.7349L353.308 18.16L353.666 18.7906C354.778 20.3368 355.716 21.8117 356.53 23.2862C358.477 26.0621 360.512 28.6874 362.077 30.6733L363.328 30.0179C363.037 29.0572 362.734 28.1048 362.431 27.1525L362.29 26.7041C360.943 22.6024 358.69 15.7478 355.087 11.0326L354.808 10.664C356.764 12.7271 358.614 15.4657 360.345 18.8361C363.554 25.0675 365.939 31.7584 368.246 38.2392L368.428 38.7465L368.495 38.8407C369.55 40.2324 370.606 41.624 371.615 43.049C371.965 43.5436 372.377 44.1006 372.831 44.7164C376.176 49.2426 381.764 56.8127 380.233 62.0677L380.09 62.5401L380.483 62.8454C381.747 63.8068 383.314 65.4203 383.611 67.6138C383.746 68.5788 383.611 69.4874 383.223 70.3629L383.11 70.6023L383.189 70.8643C383.727 72.6227 383.464 74.3995 382.379 76.2633L382.232 76.4555L381.982 76.8268L382.185 77.2135C384.139 80.7978 385.958 84.5661 387.717 88.1999C389.039 90.9412 390.415 93.785 391.824 96.4999C401.243 114.652 411.201 133.04 419.793 148.825C429.58 166.823 438.754 181.63 451.704 195.48C454.523 198.488 457.134 201.677 459.463 204.943L460.688 204.2C460.018 202.854 459.356 201.519 458.65 200.198C457.129 197.35 455.365 194.533 453.484 191.551C449.273 184.827 444.911 177.891 443.553 170.527C441.996 162.084 445.264 153.089 451.507 148.671C451.801 148.463 452.104 148.266 452.407 148.07C454.466 146.807 456.834 146.157 459.341 145.478C462.099 144.728 464.956 143.944 467.335 142.26C467.865 141.885 468.362 141.463 468.822 141.014C470.911 138.97 472.219 136.347 473.493 133.801C474.532 131.723 475.613 129.579 477.082 127.832C477.938 126.82 478.851 125.961 479.794 125.295C484.693 121.827 490.343 123.539 496.182 125.769C502.05 128.015 508.046 127.944 513.834 127.878C519.425 127.81 524.716 127.742 529.96 129.581C536.708 131.947 544.689 137.152 547.315 143.46C551.075 152.518 546.173 161.927 542.157 168.216C541.616 169.076 541.056 169.932 540.507 170.78C537.582 175.289 534.545 179.966 532.525 185.179C531.049 188.963 530.107 192.952 529.186 196.821C528.52 199.626 527.828 202.52 526.949 205.299C525.539 209.726 523.66 213.989 521.364 217.965L522.51 218.833C528.03 213.195 533.375 207.609 538.394 202.236L539.875 200.658C544.173 196.114 548.622 191.41 550.97 185.612C552.052 182.919 552.536 180.032 552.991 177.253C553.486 174.18 554.01 170.999 555.369 168.199C556.349 166.162 557.521 164.696 558.97 163.671C562.609 161.095 567.431 161.837 573.574 163.747C576.809 164.745 579.783 164.302 582.65 163.882C585.062 163.518 587.347 163.174 589.794 163.634C593.295 164.285 596.743 166.458 600.023 170.093C605.915 176.618 610.672 185.961 612.44 194.502C613.379 199.052 613.311 202.477 612.205 205.61C611.983 206.245 611.643 206.839 611.264 207.478C610.871 208.145 610.47 208.853 610.207 209.605C609.999 210.211 609.84 210.536 609.721 210.691L609.49 210.466L608.954 210.757L608.471 211.099L608.731 211.692C609.077 212.455 609.595 214.086 610.216 216.262C611.31 220.155 611.4 220.356 612.509 221.674C612.803 222.015 613.172 222.461 613.671 223.115C620.589 232.165 624.589 240.188 621.69 249.929C620.236 254.794 617.657 258.493 613.805 261.218C610.166 263.794 605.377 265.521 598.739 266.683C571.294 271.418 548.405 273.298 525.858 267.071C523.941 266.536 521.926 265.912 519.71 265.129C519.261 264.97 518.816 264.79 518.37 264.61C517.662 264.334 516.925 264.042 516.186 263.822C515.476 263.618 514.83 263.156 514.544 262.952L513.454 262.185L513.338 263.47L513.326 263.778L513.53 264.041C513.53 264.041 514.161 264.708 514.573 265.141C515.973 266.643 517.653 267.893 519.48 268.951L520.266 270.834C520.339 271.012 520.415 271.17 520.481 271.389C520.987 273.028 521.344 274.755 520.49 276.421C520.133 277.115 519.703 277.631 519.114 278.048C518.631 278.39 518.054 278.674 517.15 278.996C516.754 279.135 516.294 279.16 515.802 279.19C515.062 279.218 514.215 279.27 513.46 279.752C512.847 280.185 512.435 280.901 512.038 281.589C511.759 282.069 511.465 282.578 511.204 282.833C510.88 283.15 510.532 283.432 510.178 283.682C508.47 284.891 506.626 285.207 505.142 284.56L504.141 284.119L504.139 285.216C504.142 286.894 503.6 288.126 502.54 288.876C501.916 289.318 501.091 289.601 500.089 289.709C498.241 289.921 496.284 288.955 495.518 287.447C495.433 287.277 495.38 286.978 495.325 286.7C495.264 286.389 495.211 286.09 495.1 285.833C495.119 285.36 495.202 284.878 495.345 284.405C495.723 283.466 495.671 282.743 495.166 282.304C494.452 281.696 493.177 281.768 489.213 284.06L488.949 284.212L488.877 284.51C488.82 284.728 488.716 284.907 488.599 284.99C488.575 285.007 488.54 285.032 488.508 285.037C487.606 285.286 486.73 285.447 485.891 285.51L485.407 285.552L485.256 286.012C484.446 288.565 484.011 291.171 483.933 293.984L483.926 294.148L483.994 294.294C485.408 297.641 487.598 301.059 489.054 303.316C489.544 304.083 489.962 304.724 490.223 305.193C495.281 313.987 495.641 321.139 495.625 331.88C495.611 342 497.559 352.695 501.232 362.804C502.807 367.152 505.104 372.72 508.794 377.233C510.377 379.17 512.117 380.679 513.97 381.824C503.643 376.3 497.611 363.882 494.307 353.971C492.105 347.363 491.849 340.208 491.592 333.302C491.279 324.667 490.946 315.729 486.8 307.899L485.447 308.361C485.835 310.632 486.283 313.214 486.571 315.768C487.658 325.321 484.55 331.144 480.607 338.513C479.846 339.935 479.051 341.434 478.243 343.014C475.37 348.671 475.952 354.764 476.521 360.637C477.132 367.045 477.721 373.097 474.101 378.523C472.667 380.668 470.54 382.758 467.795 384.7C462.342 388.559 454.577 391.651 448.032 392.57C438.445 393.911 429.423 390.432 425.067 383.704C423.071 380.609 422.013 376.992 420.999 373.485C420.591 372.06 420.157 370.599 419.677 369.171C417.776 363.588 415.384 359.235 409.956 356.112C408.495 355.272 406.935 354.591 405.423 353.929C403.911 353.266 402.35 352.585 400.91 351.749C393.82 347.628 386.116 339.84 387.705 331.521C389.019 324.635 395.637 319.774 401.475 315.484C403.025 314.352 404.472 313.274 405.796 312.196C413.253 306.123 419.499 299.087 424.346 291.273C424.476 291.058 424.594 290.85 424.724 290.634L424.942 290.268L423.95 289.291C417.205 293.375 407.264 293.816 400.211 292.869C398.905 292.697 397.467 292.513 395.956 292.327C378.138 290.107 348.318 286.393 348.035 265.187C347.919 257.032 354.012 250.529 359.384 244.782L360.22 243.89C364.659 239.122 370.176 233.203 369.526 225.691C369.318 223.275 368.315 221.209 367.355 219.203C366.216 216.845 365.14 214.601 365.35 211.925C365.609 208.595 367.369 205.211 370.599 201.882C371.883 200.549 373.379 199.366 374.849 198.22C375.401 197.777 375.973 197.336 376.517 196.881C377.938 195.716 379.188 194.336 380.388 193.009C381.55 191.728 382.637 190.517 383.878 189.497C384.07 189.344 384.25 189.199 384.438 189.065C386.723 187.448 389.221 187.43 392.112 187.417C392.804 187.422 393.521 187.41 394.249 187.39L394.801 187.37C401.141 187.161 407.689 186.946 414.155 187.214C415.357 187.264 416.595 187.29 417.865 187.31C423.024 187.406 428.36 187.501 432.766 189.58C433.273 189.822 433.822 190.123 434.446 190.53L435.41 189.494C428.853 180.506 423.714 170.673 419.002 161.369L417.88 159.159C413.812 151.114 409.607 142.777 404.948 134.92C403.015 131.64 400.908 128.464 398.86 125.371C396.072 121.157 393.192 116.814 390.746 112.235C389.698 110.254 388.626 108.291 387.546 106.315C384.732 101.166 381.813 95.8429 379.452 90.4605C377.926 86.9803 376.537 83.4202 375.2 79.9827L374.545 78.3077L374.466 78.2218C370.775 73.9054 366.876 68.9223 367.427 64.4312C367.549 63.4791 367.874 62.6653 368.419 61.9615L368.829 61.4417L368.348 60.9867C368.188 60.8351 368.044 60.7069 367.94 60.5858C365.068 57.3514 363.632 53.1001 362.244 48.9915C361.934 48.0794 361.616 47.1555 361.295 46.2518L360.874 45.0826C357.032 34.3852 352.678 22.265 345.419 12.9601L344.248 11.4556L344.129 13.3604C343.974 15.8388 343.556 18.3445 343.139 20.7781C342.609 23.8754 342.082 27.0768 342.064 30.3239C342.042 33.9634 343.052 37.4381 344.03 40.7935C345.323 45.217 346.532 49.3986 345.582 53.9248C343.324 64.6966 335.921 72.1453 327.731 78.8074C328.413 78.1478 328.994 77.5951 329.452 77.218C336.793 71.2802 344.218 63.5867 343.641 51.533C343.578 50.2698 343.401 48.9456 343.08 47.4934L341.659 47.5091C341.006 50.782 339.691 53.7452 337.499 56.8169C333.551 65.4261 328.302 73.5952 320.899 82.6173L320.636 82.9449L321.067 84.0538L321.261 84.5527C322.75 88.4303 324.103 92.8641 325.272 97.7114L325.371 98.101L325.754 98.2183C327.285 98.708 328.843 99.1608 330.398 99.6338C335.796 101.24 341.383 102.89 346.109 105.82C352.925 110.029 357.835 117.266 359.599 125.651C361.007 132.362 359.654 138.516 358.238 145.033C357.73 147.337 357.208 149.722 356.815 152.139C356.032 156.952 355.577 162.153 355.351 168.977C355.323 169.987 355.243 171.122 355.16 172.329C354.981 174.948 354.806 177.848 354.928 180.518L354.767 180.315L355.149 182.978C355.244 183.636 355.355 184.193 355.477 184.69C355.469 184.679 355.119 184.184 355.119 184.184L354.83 184.3C351.203 175.006 343.117 169.451 335.3 164.077C333.781 163.031 332.271 161.996 330.796 160.936C322.125 154.681 316.404 148.248 312.754 140.668C308.584 132.005 307.691 125.249 310.047 120.011C310.986 117.915 312.373 115.978 313.718 114.107C314.817 112.587 315.946 111.011 316.856 109.324C318.569 106.149 319.815 102.616 320.662 98.5168L320.705 98.3274L320.643 98.141C319.495 94.5702 318.668 91.0544 318.181 87.6693L317.997 86.3854L316.968 87.2549L316.847 87.3583C312.448 92.4332 307.752 97.4365 303.195 102.288L302.6 102.921L302.69 103.299C305.901 116.351 304.736 134.411 291.841 145.94C290.79 146.878 289.662 147.782 288.485 148.616C283.914 151.85 278.999 153.897 273.774 156.057C272.048 156.765 270.307 157.503 268.539 158.277C264.248 160.182 260.365 162.364 256.691 164.965C252.603 167.858 248.806 171.234 245.005 175.356C249.672 169.261 255.353 164.798 260.088 161.447C263.621 158.947 267.371 156.576 270.994 154.277C273.409 152.744 275.928 151.157 278.345 149.552C279.921 148.507 281.466 147.467 282.962 146.408C289.452 141.815 295.775 136.262 298.062 126.831C299.258 121.901 299.253 116.849 299.252 111.954C299.254 110.732 299.253 109.532 299.275 108.314L299.307 106.436L298.036 107.812C297.084 108.84 296.143 109.859 295.211 110.89C291.043 115.466 286.735 120.07 282.571 124.502C277.594 129.809 272.45 135.305 267.503 140.804C263.205 145.595 259.129 150.777 255.189 155.776C251.643 160.282 247.99 164.936 244.183 169.274L244.055 169.418L244.012 169.607C243.379 172.759 242.046 175.471 239.952 177.907C239.928 177.924 239.905 177.94 239.893 177.949C239.846 177.982 239.802 177.995 239.749 177.945C239.74 177.933 239.585 177.813 239.648 177.627C239.914 176.855 240.141 176.076 240.331 175.27L240.549 174.355L240.081 174.369C240.142 174.255 240.713 173.338 240.713 173.338L240.737 173.197C241.738 166.444 239.783 159.961 237.883 153.705C236.798 150.125 235.682 146.425 235.121 142.685C233.977 135.099 237.167 127.768 240.608 122.364C239.636 124.713 239.008 127.296 238.757 130.09C238.217 135.969 239.911 142.459 241.563 148.714C243.019 154.242 244.524 159.965 244.479 165.246L244.462 167.521L245.784 165.666C248.982 161.193 252.519 156.799 255.928 152.548C258.033 149.927 260.215 147.216 262.27 144.525C264.067 142.193 265.855 139.849 267.635 137.493C274.285 128.756 281.16 119.737 288.447 111.275C289.96 109.515 291.681 107.626 293.843 105.335L294.994 104.114L293.316 104.117C287.002 104.113 279.64 104.127 272.398 104.886C275.641 104.447 278.923 104.139 282.166 103.824C287.057 103.367 292.121 102.877 296.88 101.984L297.103 101.949L297.255 101.789C299.964 99.0232 302.813 96.2294 305.553 93.5307C309.55 89.5879 313.681 85.5332 317.598 81.4005L317.711 81.2853L317.767 81.1396C317.87 80.8365 318.074 80.5505 318.322 80.3754C318.381 80.3338 318.44 80.2921 318.507 80.2622L318.764 80.1509L318.877 79.9116C319.693 78.1674 320.603 76.4806 321.632 74.8866L322.757 75.7519C324.313 73.979 325.719 72.2944 327.042 70.6161L326.151 69.532L325.594 69.8198L325.493 69.9267C324.375 71.195 323.419 72.3666 322.579 73.527C322.402 73.7762 322.213 74.0336 322.024 74.2911C322.566 73.4833 323.136 72.6908 323.731 71.9335L325.111 70.1615L322.963 70.7981C320.378 71.5669 317.345 71.9279 313.94 71.8629L313.56 71.8495L313.34 72.1639C310.786 75.7741 307.651 78.9123 304.011 81.488C290.266 91.2157 269.668 92.7121 251.548 85.2961C240.249 80.6719 229.658 74.0263 219.413 67.5952C217.029 66.1006 214.645 64.606 212.258 63.1314C208.595 60.8799 204.906 58.6651 201.209 56.4385C194.253 52.2574 187.062 47.9427 180.162 43.4397L180.089 43.3857L180 43.3602C179.079 43.0577 178.159 42.6831 177.259 42.2599L177.43 41.9269C178.909 42.7182 180.45 43.5718 182.065 44.4795L182.179 44.5403L182.3 44.561C183.124 44.7021 183.956 44.8029 184.783 44.8719L184.453 45.8298C190.385 49.2149 196.348 52.8434 202.106 56.3334C214.96 64.1527 228.246 72.2322 242.272 78.2855C255.131 83.8389 267.87 86.2251 279.1 85.2067C287.574 84.4414 294.34 80.5373 300.897 76.7631C303.241 75.4045 305.684 74.0112 308.164 72.7689L310.292 71.7046L307.93 71.4144C303.37 70.8413 298.954 69.8478 295.07 68.9555L294.461 68.8205C284.715 66.6149 275.205 64.5947 265.825 62.7312C271.864 63.4951 277.927 64.1184 283.964 64.406L286.911 64.5478C292.868 64.8217 298.497 65.0807 304.365 66.0536C305.845 66.2965 307.473 66.6473 309.189 67.0236L310.506 67.3111L310.928 65.9342C303.796 63.027 298.621 56.9146 293.608 51.0058C291.525 48.538 289.352 45.9926 287.082 43.7101C280.054 36.6287 265.572 24.8356 247.564 25.2948C237.989 25.5304 228.054 30.3518 218.439 35C209.772 39.1895 200.887 43.497 192.195 44.5046C201.373 42.959 210.415 37.7263 218.403 32.4269C230.499 24.4146 241.228 19.367 254.261 20.8202C267.366 22.2754 278.346 29.4946 285.242 35.2907C290.047 39.3318 294.365 43.983 298.051 49.1162C298.897 50.2855 299.698 51.4681 300.512 52.6423C304.597 58.589 308.458 64.2178 315.257 67.5546L315.095 68.1997L315.883 68.3138C320.483 69.0179 324.008 68.9274 326.974 68.0478L327.161 67.9866L327.297 67.8547C327.877 67.25 328.456 66.6453 329.056 66.0441C330.738 64.3237 332.482 62.5416 333.988 60.698C335.811 57.7287 337.377 54.7466 338.695 51.7634L338.717 51.6947L338.731 51.6142C339.178 49.5481 339.229 47.497 338.904 45.3403C338.674 43.8415 338.305 42.3706 337.945 40.9635C337.485 39.1149 337.004 37.2107 336.854 35.3014C336.686 33.1403 336.925 31.08 337.188 28.8789C337.339 27.5696 337.501 26.2 337.559 24.8333C337.697 21.7309 336.441 18.9077 335.24 16.187C333.748 12.8059 332.338 9.61473 333.656 6.20715C333.66 6.18703 333.702 6.12184 333.796 6.05516C333.926 5.96346 334.053 5.94387 334.093 5.95073L334.512 6.0431L334.787 5.7072C335.372 5.01029 336.107 4.34919 336.99 3.72401C338.356 2.75707 340.039 1.93742 341.588 1.47782L342.271 1.29462L342.128 0.618059C341.451 -2.26137 341.162 -5.46785 341.245 -8.921C341.421 -16.416 342.412 -24.0819 343.378 -31.4829C344.038 -36.5454 344.705 -41.7722 345.13 -46.9163C346.183 -59.9642 345.153 -73.1822 344.152 -85.9606C343.286 -97.0494 342.393 -108.526 342.867 -119.82C343.345 -131.083 345.755 -141.414 348.386 -151.884C351.039 -162.423 349.567 -172.27 347.998 -182.702C347.625 -185.178 347.255 -187.674 346.932 -190.203C346.72 -191.926 346.543 -193.675 346.366 -195.423C345.873 -200.465 345.347 -205.679 343.738 -210.55C341.95 -215.948 338.655 -220.528 335.457 -224.946C334.128 -226.799 332.745 -228.702 331.514 -230.641C325.101 -240.65 317.101 -249.978 309.359 -258.993C307.513 -261.151 305.675 -263.298 303.858 -265.441L302.231 -267.365C292.244 -279.175 281.934 -291.393 273.386 -304.593C265.804 -316.303 258.865 -327.955 257.211 -341.58C257.239 -342.289 257.607 -343.044 258.255 -343.502ZM317.615 -252.25L301.79 -272.957C298.196 -277.661 294.484 -282.405 290.889 -286.984C285.671 -293.632 280.286 -300.515 275.161 -307.405C271.433 -312.421 269.524 -316.567 268.79 -321.227C268.613 -322.375 268.49 -323.648 268.371 -325.014C267.896 -330.281 267.345 -336.254 262.746 -338.656L261.596 -339.256L261.688 -337.978C263.408 -313.494 281.334 -292.666 297.161 -274.277C298.965 -272.178 300.745 -270.114 302.459 -268.092C304.533 -265.636 306.612 -263.148 308.68 -260.651C311.265 -257.549 313.846 -254.427 316.478 -251.358L317.615 -252.25ZM354.248 -186.86C354.19 -190.089 353.96 -193.037 353.553 -195.86L353.538 -195.956L352.958 -197.349L351.58 -196.974C352.103 -193.438 352.519 -190.003 352.817 -186.784L354.248 -186.86ZM360.713 -197.658L357.806 -198.393L357.947 -197.344L357.977 -197.153C358.187 -195.657 358.314 -194.104 358.389 -192.424L358.414 -191.965L358.839 -191.788C360.155 -191.253 361.727 -191.305 363.644 -191.919L364.585 -192.213L360.713 -197.658ZM349.601 -53.6866C349.534 -56.5031 349.456 -59.3111 349.378 -62.1192L348.084 -102.884C347.753 -113.291 347.409 -124.042 349.9 -134.36C352.182 -143.824 353.443 -153.006 353.874 -163.263L352.444 -163.435C351.593 -159.192 350.275 -154.935 348.992 -150.828C347.709 -146.721 346.391 -142.465 345.525 -138.193C340.954 -115.603 343.658 -92.0277 346.28 -69.2425L346.445 -67.7859C346.71 -65.4634 347.003 -63.1257 347.309 -60.7964C347.604 -58.4067 347.919 -56.0135 348.19 -53.6071L349.601 -53.6866ZM405.898 -51.6531C411.987 -59.8858 418.291 -68.4128 419.358 -78.819L419.451 -79.9105L418.902 -80.0873C417.468 -80.5396 414.414 -80.0579 410.861 -79.4342C409.984 -79.2736 409.227 -79.1444 408.752 -79.0911C402.747 -78.3588 398.085 -76.7032 394.092 -73.8774C386.668 -68.6058 382.198 -59.9099 380.756 -48.036C380.307 -44.3245 380.265 -40.5123 380.22 -36.804C380.168 -32.0827 380.117 -27.1853 379.192 -22.5718C378.693 -20.0798 377.842 -17.586 376.583 -14.9447L377.684 -14.0628C378.056 -14.3614 378.448 -14.6566 378.849 -14.94L379.049 -15.0817C383.119 -17.8736 387.685 -20.115 392.101 -22.268C396.078 -24.2167 400.202 -26.2335 403.994 -28.6693C405.193 -29.4475 406.361 -30.2207 407.456 -30.9959C414.04 -35.6556 420.202 -41.5364 420.656 -52.9583C420.727 -54.7058 420.686 -56.462 420.635 -58.1579C420.581 -60.082 420.538 -62.0664 420.655 -64.0233C420.704 -64.7292 420.844 -65.7299 421.02 -66.8797C421.269 -68.5761 421.578 -70.6865 421.647 -72.662L420.277 -73C415.073 -62.1939 407.344 -52.3581 399.441 -42.8937C401.219 -45.3014 405.898 -51.6531 405.898 -51.6531ZM351.374 6.41255C350.54 -6.55467 350.234 -19.5247 350.056 -29.3676L348.608 -29.4393C348.348 -27.1341 348.002 -24.7505 347.67 -22.4474C346.299 -12.9214 344.884 -3.08193 348.032 5.8614L348.004 5.84624L348.659 7.39712C349.204 8.69094 349.718 9.74148 350.277 10.7067L351.623 10.2847C351.589 9.81323 351.464 7.76309 351.464 7.76309L351.453 7.64732L351.374 6.41255ZM341.178 4.59579C340.746 4.45975 340.24 4.39382 339.839 4.67723C339.509 4.91063 339.256 5.42616 339.615 6.10868L339.894 6.6533L340.474 6.47298C341.228 6.23972 341.984 6.05844 342.769 5.94442L344.173 5.72906L343.176 4.72011C342.923 4.43894 342.233 3.9378 341.178 4.59579ZM344.645 7.02091C344.552 6.83937 344.086 5.93167 344.086 5.93167L343.491 6.14044C343.281 6.21837 343.112 6.3032 342.959 6.41157C342.546 6.70331 342.358 7.13688 342.443 7.60688L342.547 8.15248L343.1 8.18504C343.437 8.21165 343.785 8.17791 344.186 8.07061L345.104 7.84474L344.645 7.02091ZM342.637 13.5503L341.307 14.244C341.114 14.3454 340.912 14.4352 340.711 14.5249L339.923 14.8352L340.367 15.5634L340.581 15.8896C340.664 16.0074 340.735 16.1335 340.807 16.2596L341.766 17.9141L342.637 13.5503ZM515.194 60.8418C514.675 58.6105 514.204 56.2217 513.756 53.516C513.338 51.0017 512.956 48.5143 512.562 46.0353C510.722 34.1691 508.984 22.9726 504.094 11.744C497.879 -2.50597 485.948 -12.2687 474.409 -21.7262C473.02 -22.8643 471.623 -24.0142 470.234 -25.1523C465.242 -27.8591 460.719 -31.9761 457.385 -36.8109C455.929 -38.3435 454.685 -39.7258 453.537 -41.1229L452.354 -40.3213C453.194 -38.7595 454.046 -37.206 454.907 -35.6408C454.454 -36.3807 454.009 -37.1089 453.556 -37.8488L452.234 -37.3194C453.167 -32.8539 453.327 -27.6822 452.735 -21.5007C452.535 -19.4855 452.268 -17.4403 451.999 -15.4472C451.363 -10.7016 450.719 -5.79166 451.045 -0.86077C451.618 7.46598 455.896 15.0086 463.779 21.5739C469.251 26.1327 475.533 29.588 481.604 32.9452C488.546 36.7825 495.727 40.7332 501.656 46.3121C506.273 50.6627 510.395 55.7357 513.9 61.3864L515.194 60.8418ZM372.816 58.4079C369.594 51.8325 367.575 44.635 365.64 37.6794L364.982 35.352L364.899 35.2342C364.106 34.2395 363.409 33.3542 362.82 32.6221L361.812 31.3733L360.575 32.0724C360.933 33.0032 361.271 33.9304 361.589 34.8543C362.373 37.1102 363.008 39.5065 363.671 42.042C365.002 47.093 366.376 52.3068 369.139 56.485C369.716 57.3496 370.517 58.2319 371.679 59.2483L372.816 58.4079ZM378.249 58.5403C378.221 55.6787 376.362 51.4792 372.566 45.7166L371.295 46.3686C373.183 51.3079 374.955 55.2856 376.885 58.8866L378.249 58.5403ZM332.283 124.85C330.209 119.972 328.059 114.936 325.681 110.078C324.259 107.195 322.991 104.204 321.886 101.221L320.493 101.376C319.851 105.913 318.632 110.435 316.88 114.804C316.555 115.617 316.216 116.387 315.874 117.178C314.301 120.8 312.812 124.241 313.413 128.588C314.161 134.015 316.894 140.248 320.916 145.656C324.977 151.143 330.32 155.369 335.479 159.46C341.878 164.53 347.922 169.321 351.594 176.232L351.752 176.155C351.869 176.496 352.007 176.841 352.148 177.165L353.532 176.822C353.314 174.591 353.239 172.363 353.186 170.739C353.159 170.051 353.146 169.459 353.11 169.008C352.584 159.623 354.003 150.364 355.75 140.095C357.671 128.872 355.044 114.522 341.88 107.912C339.772 106.858 337.498 105.993 335.292 105.15C332.67 104.142 329.947 103.117 327.547 101.775L326.16 100.989L326.802 104.07C328.462 112.334 330.348 119.343 332.743 125.974C332.6 125.597 332.437 125.218 332.283 124.85ZM376.382 68.9648C375.741 68.2341 375.133 67.6747 374.549 67.2747L373.855 66.7936C372.79 66.0628 372.288 65.7286 371.734 66.1203L371.605 66.212L371.482 66.3876L371.348 66.6235L371.395 66.8904C371.479 67.3084 371.664 67.7437 371.989 68.203C371.985 69.0718 372.242 70.1094 372.778 71.3915L373.298 72.65L374.051 71.516C374.25 71.1981 374.52 70.9544 374.956 70.646L375.132 70.521C375.411 70.341 375.704 70.2048 376.038 70.1274L377.183 69.8471L376.382 68.9648ZM457.028 203.626C455.18 200.939 453.279 198.554 451.216 196.338C443.68 188.29 435.832 179.35 429.374 168.454C415.634 145.246 403.565 121.652 390.361 95.4319C389.157 93.0315 387.956 90.6112 386.764 88.2025C385.012 84.6526 383.247 81.1109 381.439 77.5826L381.236 77.1959L380.76 77.1972L380.612 77.2134C379.359 77.0923 378.272 76.7304 377.375 76.4112L375.397 75.6898L376.519 77.4759C383.462 88.507 389.749 99.6124 395.733 111.463C398.857 117.649 401.655 124.1 404.347 130.326C407.566 137.77 410.907 145.463 414.844 152.823C421.247 164.766 427.87 177.119 437.678 187.253C441.099 190.788 444.773 194.18 448.324 197.448C450.839 199.751 453.44 202.153 455.914 204.574L457.028 203.626ZM472.39 241.487L471.954 241.071C470.986 240.378 469.161 238.523 466.959 235.963C464.672 233.356 462.508 230.699 460.423 228.127L445.142 209.386C444.259 208.314 443.376 207.242 442.494 206.17C440.75 204.081 438.956 201.921 437.281 199.73C436.604 198.848 435.961 197.889 435.362 196.969C433.486 194.144 431.563 191.227 427.925 189.859C422.71 187.911 415.993 188.087 410.067 188.233C408.623 188.265 407.218 188.304 405.913 188.309C405.044 188.305 404.155 188.298 403.246 188.287C400.314 188.241 397.27 188.186 394.481 188.692C392.187 188.672 389.976 189.371 388.033 190.746C387.397 191.196 386.779 191.722 386.199 192.327L386.074 192.45L386.015 192.616C385.721 193.549 385.289 194.438 384.739 195.234C383.174 196.995 381.243 198.662 379.37 200.288C377.146 202.215 374.828 204.21 372.994 206.515C370.024 210.261 370.753 214.164 371.483 217.942C371.897 220.125 372.32 222.371 372.033 224.588C371.513 228.474 369.965 232.38 367.306 236.542C365.43 239.461 362.873 242.242 360.168 245.164C353.126 252.799 345.835 260.681 350.677 271.767C356.571 285.289 377.815 290.3 394.203 290.475C398.304 290.524 408.664 290.299 416.304 287.331C417.956 286.692 419.392 285.923 420.676 285.015C423.467 283.039 425.335 280.533 427.47 277.131C428.328 275.746 429.197 274.6 430.576 273.501C430.744 273.364 430.933 273.231 431.109 273.106C432.758 271.939 434.856 271.056 437.702 270.332L437.865 270.287L437.998 270.175C438.694 269.559 439.434 268.982 440.188 268.449C446.548 263.947 454.768 262.372 465.314 263.659L465.435 263.68L466.922 263.334L466.964 261.944C466.173 261.725 465.248 261.443 464.448 261.037C462.378 260.01 458.708 257.923 457.312 255.552C455.757 252.905 455.923 250.967 457.808 249.633C459.987 248.091 464.383 247.384 469.57 247.743L470.256 247.788L470.341 247.109C470.489 245.944 471.041 245.076 472.113 244.317C472.266 244.209 472.428 244.113 472.581 244.004L473.506 243.438L472.631 242.802C472.456 242.679 472.372 242.561 472.251 241.94L472.39 241.487ZM509.649 231.859C511.433 230.084 513.217 228.309 515.001 226.533C521.315 218.619 525.016 209.212 526.729 196.846C528.39 184.782 531.301 176.606 537.122 167.696L537.221 167.537C540.658 162.277 544.206 156.849 543.983 150.29C543.773 144.075 540.609 135.585 534.18 131.597C527.442 127.422 519.894 128.273 512.61 129.097C508.188 129.593 503.618 130.105 499.36 129.46C497.969 129.242 496.509 128.879 495.09 128.522C490.836 127.432 486.432 126.306 482.545 129.057C481.885 129.524 481.261 130.089 480.671 130.755C478.987 132.671 477.826 134.977 476.711 137.198C475.678 139.237 474.624 141.344 473.176 143.094C472.327 144.118 471.336 145.015 470.169 145.84C467.684 147.599 464.772 148.705 461.96 149.776C459.234 150.821 456.421 151.893 454.101 153.535C450.72 155.927 448.853 159.158 448.239 163.711C446.801 174.292 451.959 184.252 456.937 193.88C458.444 196.809 459.878 199.559 461.095 202.303C463.632 207.985 465.835 213.196 467.837 218.196L467.867 218.263L467.917 218.334C470.737 222.418 475.342 230.172 474.498 236.248L474.471 236.409L474.527 236.564C475.005 238.064 475.472 239.572 475.927 241.088L476.239 242.104L477.066 241.449C477.567 241.059 477.957 240.659 478.269 240.226C479.109 239.066 478.872 237.307 478.624 235.609C478.459 234.4 478.288 233.16 478.533 232.332C479.05 230.641 479.82 229.53 481.127 228.605C484.101 226.536 487.755 227.079 490.257 229.939C491.514 231.365 492.048 233.144 492.432 234.834C492.473 235.017 492.439 235.519 492.41 235.928C492.344 236.858 492.287 237.677 492.657 238.175C493.798 239.736 496.576 239.59 498.213 238.432C498.543 238.198 498.828 237.926 499.044 237.632C499.641 236.803 499.761 235.923 499.863 235.143C499.981 234.211 500.087 233.411 500.943 232.647C501.079 232.515 501.232 232.407 501.385 232.298C502.245 231.69 503.309 231.344 504.365 231.338C505.506 231.326 506.843 231.741 508.227 232.547L508.707 232.826L509.649 231.859ZM468.297 227.663C466.346 224.306 464.049 221.212 461.868 218.355C458.315 213.71 454.137 209.631 450.445 206.04L449.379 207.006L460.951 221.231C462.141 222.686 463.391 224.153 464.669 225.634C465.48 226.58 466.3 227.538 467.111 228.484L468.297 227.663ZM611.166 257.465C613.781 255.614 615.643 253.2 616.861 250.076C619.623 243.013 618.271 234.16 613.257 226.377C612.496 225.202 611.539 224.075 610.501 222.884C608.171 220.166 605.754 217.352 606.034 214.025C606.194 212.003 607.327 210.282 608.529 208.459C609.677 206.709 610.868 204.895 611.258 202.674C613.175 191.72 601.743 175.894 593.321 170.241C589.645 167.769 586.053 168.314 582.588 168.839C580.495 169.154 578.326 169.487 576.127 169.152C574.937 168.969 573.82 168.54 572.637 168.068C571.658 167.684 570.638 167.292 569.582 167.049C566.322 166.315 563.761 166.643 561.747 168.069C559.792 169.452 558.406 171.865 557.498 175.477C557.278 176.34 557.077 177.206 556.873 178.041C555.75 182.724 554.684 187.137 551.891 191.359C549.325 195.226 546.027 198.708 542.821 202.073C542.176 202.759 541.534 203.426 540.9 204.104C531.402 214.237 521.308 223.555 510.025 232.565L509.328 233.129L510.028 233.694C513.138 236.213 515.294 239.884 515.388 242.84C515.445 244.443 514.918 245.771 513.821 246.795L513.131 247.443L513.925 247.941C514.524 248.312 515.137 248.603 515.721 248.879C517.032 249.507 518.172 250.044 518.929 251.364C519.111 251.695 519.242 252.08 519.277 252.479L519.314 252.806L524.771 256.545C525.225 256.86 525.382 257.332 525.439 257.663C525.55 258.345 525.344 259.127 524.931 259.667C524.467 260.26 523.992 260.738 523.473 261.105C522.602 261.722 521.567 262.083 520.115 262.28C519.417 262.367 518.397 262.276 517.418 262.191L517.173 262.17L516.892 263.571C540.032 270.986 566.373 266.839 589.609 263.176L595.214 262.302C600.857 261.508 606.702 260.624 611.166 257.465ZM501.421 244.063C501.174 244.238 500.898 244.398 500.567 244.579C497.489 246.174 491.971 245.023 489.42 242.268C488.504 241.273 488.36 240.721 488.058 239.52C487.996 239.282 487.928 239.012 487.844 238.718C487.794 238.523 487.716 238.013 487.618 237.375C486.969 233.186 486.603 232.119 485.788 231.918C485.091 231.757 484.406 231.888 483.817 232.305C482.498 233.239 481.878 235.41 481.546 236.564C481.495 236.741 481.459 236.89 481.41 236.996C481.151 237.78 481.199 238.347 481.236 238.798C481.284 239.365 481.322 239.745 480.644 240.684C480.536 240.831 480.356 240.977 480.203 241.085L479.723 241.407C479.535 241.54 479.319 241.71 479.129 241.916C479.05 241.954 478.979 242.004 478.944 242.029C478.084 242.637 474.795 245.283 473.234 247.024L472.379 247.965L473.631 248.21C475.004 248.476 476.106 248.81 476.821 249.17C477.442 249.473 477.83 250.046 477.869 250.726C477.925 251.429 477.623 252.102 477.081 252.485C476.822 252.669 476.525 252.773 476.178 252.807C475.028 252.931 473.902 252.738 472.927 252.261L472.842 252.216L472.753 252.19C469.738 251.602 466.752 251.205 465.362 252.188C464.632 252.705 464.029 253.751 465.288 255.829C466.665 258.125 469.748 260.557 472.462 262.719C473.412 263.461 474.276 264.157 474.99 264.766C475.038 264.908 475.016 264.977 474.933 265.036C474.753 265.181 474.573 265.326 474.361 265.476C473.702 265.943 472.882 266.434 472.025 266.97C471.666 267.188 471.296 267.415 470.938 267.633C471.989 266.395 472.353 265.412 472.089 264.539L471.907 263.907C471.907 263.907 470.514 264.186 470.127 264.265L470.532 262.989C470.119 262.804 469.621 262.626 468.899 262.43L468.019 262.186L467.977 263.1L467.739 263.887L468.541 264.097C468.984 264.173 469.426 264.249 469.857 264.333C468.722 264.553 467.547 264.766 466.372 264.979C458.349 266.432 449.266 268.087 442.564 272.83C440.114 274.564 438.067 276.666 436.488 279.056C434.31 282.348 432.375 285.733 430.5 289.004C426.911 295.273 423.514 301.213 418.505 306.649C414.23 311.3 409.365 314.867 404.348 318.418L401.686 320.302C400.049 321.46 398.408 322.639 396.769 323.87C391.957 327.487 389.772 331.544 390.243 335.93C391.108 343.996 400.959 351.219 409.127 354.966C416.212 358.207 419.376 363.251 422.439 370.875C422.677 371.485 422.922 372.107 423.159 372.717C424.896 377.144 426.69 381.725 430.564 384.976C435.787 389.357 443.826 390.474 452.06 387.97C456.34 386.673 460.286 384.481 464.098 382.349L466.03 381.282C466.831 380.84 467.583 380.378 468.254 379.903C473.649 376.085 475.433 370.863 474.221 362.458C472.834 352.781 473.106 346.597 478.37 337.674C483.386 329.175 485.332 321.435 484.879 311.804C484.779 309.665 484.577 307.457 484.394 305.324C484.29 304.178 484.189 303.012 484.097 301.857L484.082 301.762L484.047 301.663C482.42 297.14 481.959 293.118 482.684 289.671C482.718 289.894 482.749 290.138 482.803 290.364L484.227 290.328C484.227 290.328 484.282 289.831 484.299 289.73C484.487 288.572 484.722 287.38 485.071 286.426L485.411 285.532L484.46 285.462C484.287 285.443 484.114 285.424 483.942 285.404L483.66 285.356L483.37 285.296C481.738 284.914 480.647 283.971 480.063 282.422C479.813 281.769 479.978 281.104 480.162 280.39C480.325 279.745 480.49 279.08 480.362 278.375C480.169 277.327 479.184 275.585 477.814 274.999C477.072 274.676 476.325 274.745 475.661 275.179C475.131 275.555 475.067 276.289 475.024 277.451C475.016 277.74 474.992 278.18 474.951 278.298C474.776 278.775 474.625 279.236 474.501 279.659C474.182 280.733 473.97 281.432 473.263 281.932C472.992 282.124 472.656 282.273 472.239 282.409C470.993 282.796 469.334 282.45 467.713 281.458C465.847 280.322 464.412 278.544 464.15 277.05C463.733 274.712 464.692 273.22 466.167 271.858C465.242 276.419 465.57 279.281 467.205 280.616C468.577 281.731 470.649 281.661 473.553 280.419L474.091 280.179L473.971 279.61C473.8 278.794 473.637 277.99 473.455 277.183C473.474 276.285 473.373 275.544 473.279 274.886C473.086 273.59 472.974 272.732 473.831 271.295C474.022 270.966 474.29 270.67 474.584 270.462C474.855 270.27 475.286 270.054 475.738 270.193L476.024 270.273C478.918 271.089 484.951 272.794 485.634 276.182C485.731 276.643 485.492 277.255 485.276 277.849C485.068 278.403 484.874 278.929 484.88 279.437C484.502 279.952 484.376 280.448 484.51 280.937C484.676 281.597 485.275 282.093 486.342 282.451L486.528 282.514L486.711 282.473L486.851 282.621L487.101 282.674C487.339 282.735 487.439 282.753 487.548 282.782L488.128 282.901L488.365 282.362C488.587 281.852 488.849 281.348 489.136 280.88C489.385 280.757 489.614 280.63 489.85 280.463C490.309 280.138 490.671 279.776 491.03 279.434C491.33 279.133 491.615 278.861 491.909 278.652C492.392 278.311 493.029 278.037 494.324 278.393C494.897 278.553 495.533 278.952 496.179 279.59C496.176 279.61 496.281 279.783 496.407 280.012C497.614 282.092 498.576 283.426 499.575 283.638C499.934 283.72 500.276 283.655 500.571 283.446C501.183 283.013 501.476 282.028 501.526 280.225C501.534 279.937 501.647 279.697 501.847 279.556C502.001 279.447 502.184 279.406 502.361 279.457C502.559 279.512 502.731 279.655 502.858 279.884L503.061 280.27L503.497 280.262C503.569 280.264 503.633 280.254 503.669 280.281C505.816 280.866 507.689 280.565 509.373 279.373C510.269 278.74 511.128 277.831 511.987 276.622C512.029 276.557 512.092 276.495 512.174 276.437C512.457 276.237 512.878 276.133 513.145 276.209L513.314 276.249L513.477 276.204C516.605 275.528 517.489 275.079 517.866 274.812C518.432 274.412 518.435 273.968 518.384 273.721C518.255 273.088 517.595 272.83 516.869 272.655C515.775 271.909 514.628 271.236 513.419 270.677C513.166 270.52 512.848 270.321 512.519 270.13C511.485 269.518 510.519 268.929 509.663 268.068C508.323 266.7 506.853 264.524 507.436 261.901C507.75 260.495 508.467 259.386 509.563 258.611C510.057 258.261 510.646 257.969 511.304 257.75C512.228 257.432 513.815 257.6 515.34 257.757C515.726 257.802 516.103 257.836 516.481 257.869L519.142 258.107L514.682 254.953C514.228 254.638 513.972 254.076 513.97 253.424C513.973 252.679 514.302 251.97 514.808 251.611L514.104 250.342C514.266 250.245 514.41 250.249 514.459 250.268C514.035 250.144 512.633 248.838 511.912 248.093L511.915 248.073L511.676 247.835C511.508 247.672 511.408 247.407 511.426 247.182C511.437 246.997 511.523 246.919 511.581 246.877L510.921 245.595L511.416 245.545C511.61 245.62 511.702 245.749 511.735 245.796C511.637 245.583 511.556 244.668 511.487 243.922C511.222 241.175 510.873 237.409 508.8 236.455C507.859 236.025 506.733 236.256 505.484 237.14C505.06 237.44 504.599 237.837 504.127 238.295C503.679 238.735 503.715 239.435 503.765 240.106C503.789 240.39 503.814 240.849 503.75 240.983L503.486 241.435C502.78 242.66 502.352 243.404 501.421 244.063ZM448.69 -155.116C451.778 -153.501 454.715 -151.673 457.289 -149.411C454.296 -151.642 450.612 -153.949 448.69 -155.116ZM461.821 -144.258C462.026 -143.943 462.231 -143.629 462.432 -143.294C462.124 -143.43 461.796 -143.569 461.488 -143.704C461.648 -143.853 461.763 -144.04 461.821 -144.258ZM374.209 -10.6309C373.822 -10.0036 373.423 -9.36801 372.993 -8.72747C373.334 -9.39355 373.753 -10.0257 374.209 -10.6309ZM451.841 -57.705C452.069 -55.7097 452.202 -53.5237 452.312 -51.5692C452.428 -49.5828 452.538 -47.8044 452.73 -46.5088C452.631 -46.8983 452.54 -47.2761 452.47 -47.6504C452.071 -49.6128 452.021 -51.6812 451.992 -53.8701C451.969 -55.1265 451.933 -56.4265 451.841 -57.705ZM460 -27.1721C461.864 -24.2138 463.76 -21.2603 465.636 -18.3103C472.561 -7.47893 479.687 3.68708 486.125 15.1806C477.372 1.66609 468.312 -12.6565 460 -27.1721ZM524.119 271.059C526.946 272.205 529.881 273.08 532.521 273.862L536.236 274.964C545.852 277.809 554.936 280.502 563.336 286.824C567.875 290.24 572.301 294.02 576.574 297.66C578.129 298.981 579.683 300.303 581.241 301.604C581.884 302.139 582.528 302.673 583.18 303.22C586.864 306.251 590.683 309.399 593.294 313.313C595.479 316.575 596.273 319.619 595.661 322.351C594.985 325.392 592.779 326.971 590.452 328.653C589.4 329.415 588.313 330.202 587.326 331.13C584.159 334.149 583.045 338.296 581.973 342.325C581.545 343.918 581.095 345.58 580.533 347.109C579.032 351.158 576.79 353.735 573.176 357.071C569.674 360.291 567.509 364.05 565.473 367.718C565.511 367.621 565.548 367.524 565.574 367.435C567.01 363.396 569.395 360.047 571.702 356.787C574.742 352.515 577.878 348.104 578.813 342.157L578.941 341.289C579.461 337.952 579.949 334.795 581.506 331.926C582.364 330.364 583.864 329.037 585.462 327.624C588.498 324.945 591.937 321.91 590.127 316.881C588.963 313.638 584.765 310.405 581.382 307.797C580.146 306.851 578.984 305.959 578.17 305.209C573.203 300.664 567.582 295.521 562.109 290.362C551.994 280.816 541.706 276.997 530.261 273.341C528.011 272.635 525.968 271.872 524.119 271.059ZM532.017 385.315C532.872 385.275 533.7 385.22 534.539 385.156C536.457 385.019 538.286 384.855 540.038 384.658C537.398 385.024 534.686 385.264 532.017 385.315Z" fill="#CC8A85" fill-opacity="0.8"/>
<path opacity="0.8" d="M379.509 287.617C382.849 288.24 386.388 288.793 390.019 289.176C389.926 289.171 389.826 289.154 389.733 289.148C379.273 288.208 369.065 285.675 359.313 281.864C360.482 282.292 361.787 282.711 361.981 282.786C367.642 284.914 373.537 286.522 379.509 287.617Z" fill="#CC8A85" fill-opacity="0.8"/>
<path opacity="0.8" d="M359.289 281.88C359.114 281.809 358.948 281.749 358.782 281.69C358.948 281.749 359.114 281.809 359.289 281.88Z" fill="#CC8A85" fill-opacity="0.8"/>
<path opacity="0.8" d="M349.622 268.621C349.549 268.743 349.52 268.852 349.499 268.973C349.399 268.832 349.311 268.682 349.231 268.544C349.372 268.568 349.493 268.589 349.622 268.621ZM382.373 278.499C394.082 279.28 406.043 277.921 418.689 274.381C425.05 272.602 431.23 270.119 437.23 267.73C439.031 267.003 440.841 266.288 442.659 265.584C449.38 262.966 458.606 259.39 467 260.184C467.49 260.226 467.656 260.586 467.702 260.801C467.814 261.234 467.671 261.706 467.353 261.932C467.235 262.015 467.081 262.071 466.913 262.084C460.996 262.842 455.43 263.546 449.678 265.46C445.66 266.801 441.68 268.398 437.829 269.975L436.704 270.435C435.472 271.166 434.296 271.927 433.177 272.719C432.258 273.369 431.341 274.071 430.475 274.772C429.575 275.498 428.693 276.175 427.821 276.792C423.875 279.585 419.866 281.414 415.218 282.565C410.398 283.748 405.273 284.6 399.961 285.089C395.628 285.486 391.256 285.629 386.848 285.496C394.952 285.629 403.067 284.906 411.043 283.31C417.035 282.11 421.909 280.728 426.193 277.838C426.495 277.642 426.778 277.442 427.073 277.233C428.486 276.233 429.853 275.142 431.181 274.096C431.925 273.499 432.666 272.921 433.418 272.336L433.14 271.843C423.191 275.72 413.711 277.939 404.178 278.658C396.662 279.204 389.374 279.148 382.373 278.499Z" fill="#CC8A85" fill-opacity="0.8"/>
<path opacity="0.8" d="M355.217 148.091C355.287 147.565 355.292 147.049 355.234 146.542C355.493 147.631 355.441 148.057 355.217 148.091Z" fill="#CC8A85" fill-opacity="0.8"/>
<path opacity="0.8" d="M323.489 101.82C323.665 101.695 323.86 101.646 324.026 101.705C324.204 101.756 324.352 101.916 324.447 102.15L323.929 102.517C324.306 102.974 324.603 103.595 324.917 104.238C325.155 104.724 325.39 105.23 325.683 105.694L325.788 105.867L325.979 105.838L325.958 105.959L325.923 106.108C326.8 107.272 327.817 108.409 328.948 109.482C330.782 111.224 332.862 112.739 334.842 114.113C335.998 114.922 337.189 115.705 338.36 116.485C341.186 118.355 344.115 120.295 346.678 122.618C350.067 125.681 353.065 129.517 355.12 133.419C356.148 135.395 356.63 137.051 355.583 138.694C355.52 138.58 355.457 138.465 355.393 138.351L355.915 136.091C355.794 135.045 354.973 134.035 354.317 133.209C354.172 133.029 354.035 132.86 353.927 132.707C352.305 130.567 350.34 128.44 347.908 126.202C345.092 123.599 341.787 121.377 338.593 119.237C335.965 117.473 333.244 115.651 330.817 113.621L330.399 114.005C330.549 114.217 330.679 114.426 330.841 114.629L330.414 114.825C330.506 115.255 330.586 115.693 330.658 116.12C330.667 116.131 330.675 116.143 330.683 116.155L330.741 116.786C331.248 121.624 329.678 126.748 328.166 131.706C327.421 134.125 326.666 136.604 326.169 139.024C326.3 138.011 326.473 137.006 326.641 136.02C327.441 131.53 328.352 125.6 328.233 119.586L327.659 119.55C327.358 121.248 327.089 122.941 326.808 124.642C326.489 126.565 326.191 128.49 325.844 130.398C325.524 132.144 325.207 133.818 324.899 135.432C325.04 134.608 325.688 130.702 325.688 130.702C326.71 124.553 327.766 118.202 327.524 111.992C327.515 111.68 327.609 111.437 327.828 111.247L328.058 111.048L327.848 110.826C327.147 110.085 326.581 109.46 326.099 108.829L325.7 108.316L325.333 107.798L325.321 107.806C325.071 107.453 324.796 107.064 324.528 106.635L324.226 106.159L324.013 106.682C321.481 112.945 319.588 118.563 318.226 123.857C317.651 126.067 317.184 128.13 316.798 130.082C318.407 121.29 320.724 113.075 323.773 105.543L323.825 105.418L323.762 105.303C323.195 104.202 322.669 102.736 323.29 102.014C323.347 101.92 323.418 101.87 323.489 101.82ZM333.306 122.907L333.282 122.924C333.106 123.049 332.949 123.177 333.455 125.665C332.946 125.071 332.605 124.464 332.532 123.862C332.465 123.343 332.623 122.842 332.995 122.367C333.1 122.541 333.193 122.722 333.306 122.907ZM315.624 137.489C315.674 138.584 315.725 138.831 315.913 138.946C315.717 139.244 315.533 139.533 315.328 139.819C315.431 139.04 315.533 138.26 315.624 137.489ZM334.052 128.707C334.539 129.37 334.935 130.08 335.311 130.786L335.39 130.747L335.879 131.338L335.868 130.498C335.845 130.266 335.863 130.042 335.898 129.841C335.944 130.656 336.083 131.477 336.303 132.311C336.576 132.772 336.888 133.188 337.239 133.558L336.801 133.815C337.112 134.602 337.493 135.34 337.929 136.057L337.573 136.203C337.068 134.315 336.248 132.509 335.147 130.778L334.829 130.279C334.527 129.803 334.497 129.736 334.336 129.708L334.216 129.687L334.169 129.721C334.143 129.385 334.098 129.046 334.052 128.707ZM338.568 134.862C338.802 135.068 339.024 135.282 339.246 135.496C339.3 135.546 339.345 135.585 339.399 135.635C339.021 135.302 338.627 134.944 338.256 134.571C338.363 134.672 338.461 134.761 338.568 134.862ZM322.394 147.652C322.38 147.733 322.358 147.801 322.344 147.882C322.346 147.81 322.356 147.749 322.346 147.685L322.394 147.652ZM337.813 137.217C338.202 138.94 338.332 140.597 338.217 142.234C338.305 140.51 338.167 138.84 337.813 137.217ZM341.365 134.792C342.996 136.872 344.699 138.902 346.492 140.886C347.326 141.815 348.26 142.71 349.244 143.675C352.359 146.703 355.59 149.843 356.074 153.973C356.088 154.068 356.054 154.145 355.995 154.187C355.925 154.237 355.829 154.252 355.74 154.226C355.672 154.204 355.586 154.158 355.531 154.056C353.015 148.678 348.861 144.458 344.638 140.465C344.951 140.757 345.263 141.048 345.567 141.328C348.753 144.305 351.172 146.924 353.172 149.574L353.643 149.241C352.374 147.223 350.619 145.442 348.937 143.716C348.055 142.82 347.148 141.888 346.337 140.942C344.596 138.957 342.933 136.882 341.365 134.792ZM340.382 140.172C340.441 140.13 340.528 140.104 340.612 140.097L340.968 140.075C341.03 140.138 341.071 140.196 341.133 140.259L341.243 140.888C341.787 143.88 341.55 147.017 341.322 150.041C341.238 151.197 341.146 152.34 341.094 153.491C340.931 157.406 341.222 160.789 341.976 163.878C341.059 161.258 340.447 158.297 340.055 154.721C339.775 152.126 339.471 149.124 339.529 146.184L338.962 146.108C338.526 147.69 338.174 149.441 337.894 151.442C337.619 153.352 337.535 155.231 337.633 157.018C337.922 159.624 338.465 162.015 339.292 164.382C338.018 161.359 337.386 158.218 337.393 154.731L337.362 154.488C337.146 151.459 337.457 148.552 337.826 145.728C337.739 146.603 337.648 147.498 337.577 148.397L338.152 148.485C338.413 147.381 338.703 146.292 339.013 145.206C339.439 143.685 339.864 142.112 340.183 140.49C340.227 140.352 340.288 140.238 340.382 140.172ZM328.421 154.593C328.558 154.638 328.754 154.64 328.971 154.522C328.873 154.733 328.767 154.932 328.657 155.151C328.535 154.955 328.405 154.746 328.295 154.541C328.332 154.568 328.381 154.587 328.421 154.593ZM354.887 148.325C354.884 148.345 354.884 148.345 354.88 148.366C354.872 148.354 354.855 148.33 354.847 148.318C354.87 148.302 354.879 148.313 354.887 148.325Z" fill="#CC8A85" fill-opacity="0.8"/>
<path opacity="0.8" d="M325.941 101.96C326.931 101.736 327.389 101.783 328.083 102.264C327.205 101.949 327.158 101.982 327.041 102.065L326.899 102.165L326.912 102.333C326.922 102.397 326.915 102.437 326.968 102.487C326.616 102.313 326.263 102.139 325.901 101.953L325.941 101.96Z" fill="#CC8A85" fill-opacity="0.8"/>
<path opacity="0.8" d="M244.877 126.785C249.035 123.843 254.5 121.672 261.149 120.326C263.271 119.902 265.423 119.546 267.703 119.17C273.634 118.207 279.756 117.215 285.068 114.729L284.989 114.467C285.276 114.423 285.583 114.382 285.882 114.33C287.094 113.72 288.153 113.093 289.119 112.41C291.298 110.868 293.086 109.072 294.572 106.925C293.866 108.626 293.002 110.228 291.976 111.625L291.397 112.406L291.96 112.202C291.3 112.917 290.697 113.715 290.13 114.612C290.116 114.692 290.111 114.784 290.105 114.876L290.081 114.717L289.667 115.381C287.67 119.004 287.076 123.26 286.486 127.372C286.249 129.06 285.993 130.797 285.659 132.447C284.394 138.628 281.215 145.102 276.483 151.155C276.337 151.347 276.098 151.71 275.818 152.139C275.146 153.162 274.148 154.699 273.488 155.166C273.37 155.25 273.295 155.268 273.283 155.276L273.119 155.269L272.942 155.394L272.758 155.683C272.616 155.907 272.478 156.111 272.327 156.324L275.284 151.933L275.394 151.714C275.47 151.572 275.558 151.421 275.626 151.267C275.77 150.971 275.905 150.663 276.049 150.367L276.248 150.473C278.234 147.459 280.511 143.833 282.293 139.956C284.312 135.54 285.212 131.067 286.153 126.352L286.565 124.311C287.031 122.072 287.581 119.703 288.522 117.535C288.589 117.381 289.157 116.06 289.864 114.835L289.417 114.479C289.086 114.785 288.725 115.075 288.368 115.345L288.215 115.454L288.257 115.637C288.28 115.744 288.261 115.793 288.234 115.829C286.683 117.935 285.03 119.97 283.318 121.872C283.204 122.235 283.081 122.587 282.967 122.95L282.544 122.702C279.699 125.776 276.716 128.506 273.682 130.812C271.151 134.106 268.337 136.999 265.266 139.455C266.787 138.131 268.184 136.683 269.445 135.118L269.073 134.692C265.796 136.782 261.906 138.279 258.472 139.597L258.183 139.713C256.134 140.491 254.066 141.265 252.009 142.031C252.021 142.023 252.021 142.023 252.033 142.014C254.029 141.238 256.034 140.473 258.008 139.642L257.818 139.122C259.26 138.738 260.677 138.266 262.109 137.641C262.936 137.286 263.726 136.904 264.519 136.501C265.382 135.997 266.211 135.445 267.024 134.87C269.085 133.411 271.04 131.727 273.174 129.546C273.185 129.537 273.209 129.521 273.221 129.512C273.468 129.337 273.624 129.333 273.721 129.37C273.891 129.409 274.038 129.517 274.114 129.675L274.279 129.983L274.545 129.759C278.128 126.729 281.743 122.969 285.883 117.953L285.511 117.527C283.474 118.721 281.341 119.753 279.163 120.623C280.005 120.239 280.839 119.843 281.659 119.404L281.428 118.878C276.751 120.438 271.303 121.059 266.047 121.65C258.016 122.543 249.718 123.483 243.628 127.793C243.593 127.818 243.546 127.851 243.51 127.876C243.979 127.439 244.418 127.111 244.877 126.785ZM241.587 129.556C240.874 130.396 239.697 131.83 238.794 133.053C239.576 131.81 240.512 130.635 241.587 129.556ZM237.694 135.369C237.608 135.448 237.53 135.538 237.433 135.625C237.497 135.491 237.553 135.345 237.617 135.211L237.694 135.369ZM238.707 146.442C238.811 146.563 238.945 146.628 239.138 146.65C238.916 146.737 238.694 146.823 238.476 146.889C238.552 146.747 238.631 146.584 238.707 146.442ZM300.64 105.158C301.137 107.334 299.874 108.971 298.541 110.709L298.062 111.331C294.981 115.421 294.053 120.479 293.515 125.314L293.468 125.772C292.601 133.438 291.844 140.161 286.762 145.596C287.446 144.688 288.073 143.501 288.647 141.964C289.781 138.97 290.255 135.594 290.566 132.686C290.69 131.538 290.794 130.386 290.898 129.234C291.265 125.157 291.644 120.946 292.887 117.008C293.586 114.799 294.364 113.1 295.341 111.684C295.795 111.026 296.588 110.324 297.42 109.576C298.96 108.204 300.57 106.781 300.64 105.158ZM251.638 140.332C253.399 140.023 255.14 139.71 256.846 139.298C255.618 139.636 254.476 139.896 253.368 140.079C252.802 140.179 252.22 140.256 251.638 140.332ZM244.3 149.148C244.039 149.404 243.823 149.698 243.612 150.024L243.416 150.322C243.233 150.363 243.042 150.392 242.859 150.434C243.208 150.028 243.585 149.637 244.033 149.32C244.115 149.262 244.209 149.195 244.3 149.148ZM274.902 131.787C275.031 131.695 275.166 131.636 275.305 131.608C274.748 132.144 274.199 134.141 273.645 136.83C273.696 134.903 273.877 132.512 274.902 131.787ZM260.497 142.883C260.993 142.585 261.473 142.263 261.941 141.95C261.537 142.253 261.145 142.548 260.732 142.84C260.673 142.882 260.615 142.924 260.556 142.965L260.497 142.883ZM281.035 128.737C280.837 129.532 280.647 130.338 280.477 131.147L280.219 131.082L279.786 132.343C278.645 135.626 277.482 139.029 276.427 142.409C274.796 147.647 272.948 153.604 267.883 157.188C267.565 157.414 267.251 157.618 266.904 157.828C266.66 157.983 266.496 157.852 266.443 157.801C266.328 157.688 266.282 157.473 266.42 157.269C268.895 153.573 270.781 149.693 272.055 145.698C272.024 145.879 271.992 146.008 271.966 146.097C271.045 149.242 269.844 152.266 268.429 155.087L268.887 155.435C273.603 151.232 275.61 144.826 277.383 139.188C278.228 136.486 279.234 133.636 280.422 130.444C280.617 129.846 280.826 129.292 281.035 128.737ZM285.581 146.749C285.448 146.861 285.324 146.985 285.191 147.097C285.27 146.934 285.35 146.772 285.421 146.598C285.418 146.618 285.581 146.749 285.581 146.749Z" fill="#CC8A85" fill-opacity="0.8"/>
<path opacity="0.8" d="M216.168 36.7704L216.595 36.8746L216.553 36.9398C216.276 36.9235 215.991 36.8955 215.726 36.8708C215.878 36.8346 216.029 36.7983 216.168 36.7704ZM236.404 28.1941C236.393 28.2025 236.251 28.3025 236.251 28.3025C236.146 28.2534 236.04 28.2043 235.935 28.1552C236.099 28.1627 236.252 28.1784 236.404 28.1941ZM222.944 37.826C224.927 38.1549 226.853 38.5775 228.765 39.0805C233.924 40.4496 238.969 42.4823 243.751 45.0909C247.556 47.1703 251.123 49.7368 254.592 52.214C260.262 56.279 266.126 60.4907 273.112 62.6174C273.515 62.7382 273.643 63.0188 273.688 63.1817C273.747 63.4403 273.682 63.6983 273.507 63.8754L273.219 64.1676C272.317 64.1168 271.414 64.0659 270.529 64.0387L270.575 63.7051C264.371 62.3332 259.381 57.981 254.543 53.7687C252.38 51.8875 250.148 49.9323 247.848 48.3071C240.553 43.1466 231.916 39.5368 222.944 37.826ZM253.119 24.5323L253.083 24.5573C253.046 24.5303 253.01 24.5033 252.961 24.4846C253.021 24.495 253.07 24.5136 253.119 24.5323ZM205.973 59.2578C206.957 59.4985 207.92 59.7357 208.867 59.9495L208.735 60.3615C207.82 60.0188 206.901 59.6442 205.973 59.2578ZM246.103 34.1281C250.042 36.8203 253.987 40.145 258.393 44.5215C259.241 45.3705 260.09 46.2195 260.938 47.0685C264.003 50.1494 267.187 53.3232 270.566 56.1991C275.159 60.0901 279.989 62.7173 285.835 65.4563L285.892 65.4868L286.009 65.5276C287.991 65.6803 289.927 66.0425 291.8 66.5907C289.989 66.229 288.094 66.0497 286.072 66.0662L285.968 66.0691L285.886 66.1275C285.768 66.2108 285.66 66.2338 285.56 66.2166L285.387 66.1974C285.347 66.1905 285.092 66.1056 284.992 66.0884C278.041 66.3588 271.203 68.6877 264.575 70.9386C263.136 71.4273 261.728 71.911 260.327 72.3545C252.875 74.7646 243.488 76.9887 234.135 74.2916C235.625 74.5983 237.062 74.7302 238.527 74.7013C242.565 74.6365 246.455 73.8631 249.738 73.1309C253.431 72.303 257.277 71.1187 260.981 69.9823C267.67 67.9177 274.586 65.7988 281.366 65.4371L281.471 64.8857L281.151 64.7586L280.347 64.4968L280.381 64.4198C273.903 61.2622 268.441 55.3698 263.627 50.168L262.414 48.8528C257.837 43.9606 252.52 38.6726 246.103 34.1281ZM210.089 60.8521C210.384 60.9439 210.622 61.0053 210.728 61.0544C215.376 62.75 220.27 64.0945 225.258 65.0719C228.064 65.614 230.697 66.0128 233.214 66.2467C225.824 65.6966 217.961 63.8548 209.714 60.7465C209.852 60.7907 209.981 60.8231 210.089 60.8521ZM259.886 27.4497C268.444 31.6462 274.139 36.7192 277.479 43.0872L277.644 43.3948C280.532 48.8987 283.256 54.095 287.895 58.501C289.906 60.4184 292.227 62.2232 294.98 64.0398C295.298 64.239 295.658 64.4972 296.066 64.774C298.148 66.217 301.19 68.3418 303.6 68.1744C303.18 68.3303 302.71 68.4155 302.178 68.4383L302.073 68.9897L302.231 69.0374L302.143 69.1879C301.978 69.1805 301.814 69.1731 301.638 69.174L301.318 69.171L301.282 69.3201C301.196 69.2744 301.111 69.2288 301.026 69.1831C293.246 69.0323 286.953 73.2555 280.878 77.3606C278.677 78.8473 276.398 80.3723 274.107 81.6573C268.84 84.6068 262.428 87.4122 257.614 84.7565C258.723 85.0497 260.044 85.193 260.504 85.1681C261.992 85.1225 263.426 84.55 264.755 83.9804C266.856 83.077 269.114 81.9209 271.837 80.3476L271.594 79.8299C271.384 79.9079 271.194 79.9892 270.996 80.0588C273.113 79.179 275.265 78.098 277.492 76.8228L279.275 75.5959C284.209 72.1753 289.315 68.6498 294.802 67.984L294.83 67.6989C294.984 67.7667 295.13 67.8227 295.272 67.8988C296.064 67.8686 296.717 67.8664 297.322 67.8975L297.447 67.3496C296.337 66.8802 295.301 66.3406 294.342 65.835L294.256 65.7894L294.173 65.7957C293.522 65.6017 292.899 65.3709 292.275 65.0881L292.454 64.7669C290.764 63.7532 289.089 62.5351 287.484 61.1427L287.154 61.5002C286.018 60.395 284.937 59.0921 283.861 57.5729C283.861 57.5729 283.382 57.0459 283.262 56.9011C280.672 53.891 278.918 50.5893 277.083 47.0976C276.545 46.0638 275.988 45.0264 275.419 43.9975C274.973 43.3934 274.516 42.7977 274.048 42.2103L274.283 42.0436L274.3 42.0672C270.684 36.0352 266.827 31.8355 262.155 28.8315C261.392 28.3284 260.631 27.8772 259.886 27.4497ZM229.762 72.6844C229.751 72.6927 229.742 72.681 229.742 72.681L229.762 72.6844ZM274.394 64.379C274.362 64.3839 274.33 64.3888 274.298 64.3937L274.302 64.3736C274.322 64.377 274.354 64.3721 274.394 64.379ZM255.497 83.0902C255.838 83.0967 256.178 83.1032 256.522 83.0896C256.368 83.1459 256.253 83.2092 256.171 83.2676C256.053 83.3509 255.976 83.4412 255.95 83.5299C255.798 83.3901 255.658 83.2419 255.497 83.0902ZM295.043 72.8693C294.083 73.6367 293.153 74.4714 292.256 75.3011L291.53 75.974C290.94 76.5149 290.307 77.069 289.67 77.6432C289.943 77.3794 290.228 77.1072 290.509 76.8552C291.948 75.4658 293.445 74.0348 295.043 72.8693ZM301.77 70.0351C301.758 70.0434 301.75 70.0316 301.738 70.0399C301.738 70.0399 301.75 70.0316 301.742 70.0198C301.762 70.0233 301.77 70.0351 301.77 70.0351Z" fill="#CC8A85" fill-opacity="0.8"/>
<path opacity="0.8" d="M279.146 64.4258C277.415 63.9537 275.683 63.3056 274.016 62.5235C275.697 63.2251 277.412 63.8497 279.146 64.4258Z" fill="#CC8A85" fill-opacity="0.8"/>
<path opacity="0.8" d="M288.369 47.1329C292.283 54.0851 296.305 60.6419 302.165 66.3228C297.3 62.2714 293.783 56.7533 290.693 51.3393C289.897 49.9405 289.133 48.5367 288.369 47.1329Z" fill="#CC8A85" fill-opacity="0.8"/>
<path opacity="0.8" d="M337.803 59.5725C338.685 59.744 339.505 60.0293 340.28 60.4C341.474 60.9871 343.125 61.9218 343.678 63.2274C343.14 62.8661 342.655 62.4313 342.122 61.9778C341.547 61.4655 340.952 60.9497 340.241 60.5692C339.461 60.1667 338.651 59.821 337.803 59.5725Z" fill="#CC8A85" fill-opacity="0.8"/>
<path opacity="0.8" d="M339.157 57.4131C339.883 57.7651 340.625 57.9645 341.262 58.1149C341.48 58.1729 341.713 58.2023 341.926 58.2284C342.36 58.2924 342.766 58.3411 343.1 58.564C342.298 58.9546 340.911 58.593 339.157 57.4131Z" fill="#CC8A85" fill-opacity="0.8"/>
<path opacity="0.8" d="M340.091 55.037C341.226 55.5417 342.272 56.145 343.265 56.8739L343.743 57.2248L343.728 56.829C343.846 57.0458 343.953 57.271 344.047 57.5045C344.005 57.5697 343.978 57.6065 343.943 57.6315C343.896 57.6649 343.855 57.658 343.839 57.6345C342.629 56.5994 341.379 55.7336 340.091 55.037Z" fill="#CC8A85" fill-opacity="0.8"/>
<path opacity="0.8" d="M342.571 53.7945C343.474 53.7213 344.401 53.9316 345.159 54.4028C344.315 54.0101 343.465 53.8336 342.571 53.7945Z" fill="#CC8A85" fill-opacity="0.8"/>
</g>
</svg>
